<svg height="217" width="460" xmlns="http://www.w3.org/2000/svg" viewBox="0 0 460 217"><path fill-rule="evenodd" d="M61.22 43.34s-3.67 7.14 1.17 12.85c4.83 5.71 1.2 9.06 1.2 9.06s2.3.49 3.03-3.64c0 0 2.17 2.99 2.9 3.66.72.67.96.18 0 .87-.97.69 1.08.49 1.57-.69.48-1.18.24-.19 0 1.09-.24 1.27-.49 2.65-.97 2.65s4.47 4.44 14.26 2.66c0 0 1.94 1.63 3.63.42s5.44-.52 6.89-3.18c1.45-2.66 4.47 1.09 4.71-4.23.24-5.32-4.83-1.58-5.92-3.74-1.09-2.17 2.05-1.09.72-4.44-1.33-3.35-.48 0 1.21.2s-1.57-.59-.97-3.94c.61-3.35-.08-9.1-2.26-11.76-2.17-2.66-31.17 2.16-31.17 2.16zm0 0"/><path fill="#f4bb82" fill-rule="evenodd" d="M279.95 119.44s2.95 8.12-2.25 12.27c-.98.77-7.3-.91-4.69-1.74 2.61-.83 2.26-7.86 2.26-7.86s-1.79 5.92-3.17 4.77c-.86-.72-.93-2.62.99-6.37.98-1.92 1.07-2.23 1.07-2.23s1.94-1.38 2.89-1.24c1.1.17 2.9 2.4 2.9 2.4"/><path fill="#fff" fill-rule="evenodd" d="M269.09 62.88s.37.82 1.02 2.24c.63 1.42 1.55 3.44 2.57 5.91 1.02 2.46 2.18 5.35 3.35 8.51.58 1.58 1.17 3.23 1.72 4.95.56 1.72 1.08 3.5 1.5 5.48.1.53.2.98.28 1.58l.16 1.31c.09.87.18 1.88.25 2.77.12 1.79.22 3.53.27 5.21.13 3.35.12 6.46.11 9.12-.01 2.66-.09 4.88-.14 6.43l-.08 2.45-6.81-.11s-.02-.86-.05-2.37c-.05-1.52-.12-3.69-.2-6.3-.08-2.6-.24-5.63-.43-8.84-.1-1.61-.24-3.26-.4-4.92-.09-.82-.17-1.55-.29-2.41l-.19-1.3-.2-1c-.34-1.45-.82-3.03-1.36-4.59-.52-1.56-1.11-3.11-1.69-4.6-1.16-2.99-2.34-5.78-3.37-8.17-1.04-2.38-1.91-4.36-2.51-5.75l-.97-2.16 7.46-3.44zm0 0"/><path fill="#f4bb82" fill-rule="evenodd" d="M224.57 117.88s-3.55 7.87 1.33 12.39c.91.86 7.35-.34 4.8-1.37-2.54-1.02-1.66-8.01-1.66-8.01s1.35 6.04 2.81 5c.91-.66 1.12-2.54-.51-6.43-.83-1.99-.9-2.31-.9-2.31s-1.83-1.52-2.78-1.45c-1.11.09-3.09 2.18-3.09 2.18"/><path fill="#fff" fill-rule="evenodd" d="M242.76 66.17s-1.25 3.13-3.11 7.83c-.93 2.35-2 5.1-3.07 8.05-.53 1.47-1.06 2.99-1.57 4.53-.48 1.52-.99 3.11-1.3 4.53l-.07.28-.02.06c0 .02.03-.13.01-.06v.02l-.01.04-.03.16-.12.63c-.08.42-.16.84-.21 1.2-.13.74-.25 1.51-.35 2.32-.22 1.6-.39 3.21-.55 4.77-.3 3.12-.56 6.06-.74 8.58-.18 2.53-.33 4.64-.44 6.11-.09 1.47-.15 2.31-.15 2.31l-6.8-.19s0-.86.01-2.38c.02-1.5.03-3.65.12-6.23.09-2.58.2-5.59.43-8.84.12-1.63.25-3.31.43-5.04.09-.85.2-1.76.33-2.7.06-.48.13-.9.2-1.31l.1-.63.03-.16.05-.25.08-.35c.39-1.91.9-3.58 1.4-5.27.51-1.66 1.04-3.27 1.57-4.81 1.05-3.08 2.09-5.91 3-8.33.9-2.42 1.73-4.41 2.28-5.81.58-1.39.9-2.19.9-2.19l7.6 3.13zm0 0"/><path fill="#cc6621" fill-rule="evenodd" d="M245.56 28.53l-5.78 7.49-4.8 16.04.54 2.65s3.1 5.1 18.05 4.28c0 0 7.34-.47 9.67-.85 3.32-.54 6.18-1.54 7.03-4.72.85-3.17.85-8.89.85-8.89s-17.34-22.61-25.56-16"/><path stroke-width="4.193" stroke="#ffc890" fill="none" fill-rule="evenodd" d="M246.99 190.97v5.89"/><path fill="#ffc890" fill-rule="evenodd" d="M245.32 194.92s-8.71 2.55-10.65 4.89c0 0 9.91.94 13.86-.74l.94-2.68-4.15-1.47zm0 0"/><path fill="#465287" fill-rule="evenodd" d="M237.41 198.14s-6.49.8-6.23 3.55c0 0 11.72.2 14.54-1.21l.53.34h3.42v-1.14s1.14-2.68.13-4.56c0 0-3.08 1.88-6.16 2.55-3.08.67-6.23.47-6.23.47"/><path stroke-width="4.193" stroke="#ffc890" fill="none" fill-rule="evenodd" d="M264.28 190.99l.51 5.88"/><path fill="#ffc890" fill-rule="evenodd" d="M266.33 195.03s8.66 2.7 10.56 5.08c0 0-9.93.76-13.85-.99l-.89-2.69 4.18-1.4zm0 0"/><path fill="#465287" fill-rule="evenodd" d="M274.17 198.39s6.48.92 6.16 3.66c0 0-11.72-.01-14.51-1.47l-.54.32-3.41-.06.02-1.14s-1.09-2.7-.05-4.55c0 0 3.04 1.93 6.11 2.65 3.07.73 6.22.59 6.22.59"/><path fill="#efbc86" fill-rule="evenodd" d="M247.3 76l-2.03-11.4 1.73-3.75c6.63.2 6.23.15 11.86.82l3.84 11.47s-7.67 7.33-8.34 7.47c-.68.13-7.06-4.61-7.06-4.61"/><path fill="#efbc86" fill-rule="evenodd" d="M249.02 56.31l.19 4.68 3.47 4.11 4.29-3.24-.88-7.7-7.07 2.15zm0 0"/><path fill="#f8c689" fill-rule="evenodd" d="M240.73 32.19s-5.48 8.64-3.37 13.48c2.11 4.85 6.07 11.48 10.12 12.86 3.09 1.06 9.69-.42 13.27-4.85 3.59-4.42 7.38-7.59 6.12-14.12-1.27-6.53-3.59-12.22-10.75-12.85-7.17-.64-15.39 5.48-15.39 5.48"/><path fill="#cc7272" fill-rule="evenodd" d="M247.26 52.8s.45.25 1.08.53c.63.28 1.46.56 2.25.49.4 0 .78-.14 1.15-.26.18-.1.36-.17.53-.25.17-.1.33-.19.47-.28.32-.16.54-.36.73-.47.18-.12.3-.18.3-.18s-.04.12-.13.32c-.11.19-.21.51-.47.79-.22.32-.56.64-.97.93-.44.26-.98.46-1.54.5-.29.01-.56-.01-.83-.06-.27-.04-.52-.16-.75-.24-.46-.22-.83-.5-1.1-.77-.55-.55-.72-1.05-.72-1.05"/><path fill="#6f2114" fill-rule="evenodd" d="M245.08 44.45c0 .99-.52 1.8-1.17 1.8-.64 0-1.16-.81-1.16-1.8 0-1 .52-1.81 1.16-1.81.65 0 1.17.81 1.17 1.81m12.65 0c0 .99-.52 1.8-1.16 1.8-.64 0-1.17-.81-1.17-1.8 0-1 .53-1.81 1.17-1.81.64 0 1.16.81 1.16 1.81"/><path fill="#ba5d1e" fill-rule="evenodd" d="M246.91 39s-.12.03-.31.06c-.18.01-.46.09-.75.13-.29.04-.61.08-.93.11-.33.05-.66.04-.98.1-.32-.01-.64.05-.95.07-.33.02-.64.05-.9.07-.29.03-.57.03-.75.06-.19.02-.32.02-.32.02l-.07-.09s.08-.06.22-.16c.13-.11.33-.26.6-.41.25-.16.58-.3.93-.42.36-.12.75-.21 1.15-.24.81-.07 1.6.08 2.18.25.57.16.93.35.93.35l-.05.1zm5.96.31s.08-.11.24-.25c.17-.13.4-.36.71-.54.31-.18.68-.36 1.1-.48.42-.15.89-.2 1.35-.25.48 0 .96.02 1.4.13.44.1.85.27 1.17.46.66.41.93.87.93.87l-.05.1-.27-.11c-.18-.08-.44-.14-.75-.22-.64-.13-1.51-.19-2.37-.13-1.74.05-3.43.53-3.43.53l-.03-.11zm0 0"/><path fill="#f8c689" fill-rule="evenodd" d="M265.45 41.83s3.48-2.21 4.31-.55c.82 1.65-.09 6.97-4.5 6.33"/><path fill="#db6d22" fill-rule="evenodd" d="M249.34 27.91s10.13 19.98 21.95 20.31c0 0 3.66-24.12-14.07-25.07-15.28-.82-7.88 4.76-7.88 4.76"/><path fill="#db6d22" fill-rule="evenodd" d="M235.86 54.85c-.99.33-1.97-.49-1.8-3.78.16-3.28-.82-31.37 14.95-26.28l2.13 3.61s-11.6 7.59-11.43 21.72c0 0-2.4 4.25-3.85 4.73"/><path fill="#454c60" fill-rule="evenodd" d="M245.84 94.23s-12.25 14.83-10.68 29.7c2.13 20.24 7.72 65.28 7.72 65.28h6.19l3.77-81.79-1.08-13.46-5.92.27zm0 0"/><path fill="#454c60" fill-rule="evenodd" d="M261.32 94.52s7.64 10.48 6.7 30.81c-.94 20.34.2 63.56.2 63.56l-6.16.53-10.8-81.16-.09-13.5 10.15-.24zm0 0"/><path fill="#3d697c" fill-rule="evenodd" d="M242.84 97.97l21.02 1.19-1.71-5.59-17.9 2.39-1.41 2.01zm0 0"/><path fill="#b9ce31" fill-rule="evenodd" d="M251.07 70.96c8.65 1.09 7.44-9.55 7.61-9.55.85 0 3.33-.34 5.32.77 2.5 1.39 2.05 2.65 1.17 7.44-.88 4.8-2.05 27.69-2.05 27.69l-19.4-.74-.88-18.43c-2.52-1.13-2.52-6.06-1.51-7.19 1-1.14 2.01-2.27 3.4-6.82 0 0-.04-2.42 2.8-2 0 0-2.22 8.1 3.54 8.83"/><path fill="#58617f" fill-rule="evenodd" d="M250.96 190.59c0 .6-.48 1.08-1.07 1.08h-7.52c-.59 0-1.07-.48-1.07-1.08v-2.15c0-.59.48-1.07 1.07-1.07h7.52c.59 0 1.07.48 1.07 1.07v2.15zm9.34.37c.05.59.57 1.03 1.16.98l7.49-.65c.59-.05 1.02-.57.97-1.16l-.18-2.14c-.06-.59-.58-1.03-1.16-.98l-7.49.65c-.59.05-1.03.57-.98 1.16l.19 2.14zm0 0"/><path fill="#cbeafe" fill-rule="evenodd" d="M254.22 100.55s.09.98.15 2.45c.08 1.47.11 3.43.12 5.39-.02.98-.03 1.96-.04 2.88 0 1-.56 1.87-1.2 2.29-.67.41-1.32.47-1.74.51-.43 0-.68-.01-.68-.01s.24-.03.67-.09c.41-.07 1.02-.23 1.58-.65.55-.41.97-1.19.91-2.05l-.03-2.88c.01-1.96.03-3.92.11-5.39.06-1.47.15-2.45.15-2.45"/><path fill="#cbeafe" fill-rule="evenodd" d="M239.07 111.25c1.28-1.72 2.39-3.56 3.4-5.44.5-.93.93-1.91 1.26-2.9.07-.25.17-.49.21-.75.05-.25.12-.5.16-.75l.09-.75-.03-.73-.02-.47h.44c2.75-.02 5.49-.08 8.24-.05 2.74.03 5.49.03 8.24.09l.34.01.03.33c.19 1.61.56 3.25 1.19 4.76.16.38.33.75.54 1.1.09.19.22.34.33.51.11.18.24.33.39.47.14.15.27.31.44.42.17.1.32.27.51.33.19.07.37.18.57.22l.61.11v.05l-.63-.08c-.21-.03-.4-.13-.59-.2-.21-.06-.37-.22-.55-.32-.18-.11-.33-.26-.48-.41-.16-.14-.3-.29-.42-.46-.12-.18-.27-.33-.37-.52a9.06 9.06 0 0 1-.61-1.1c-.69-1.53-1.11-3.17-1.35-4.83l.05.03h-16.48l.04-.05.03.82-.1.8c-.05.27-.13.53-.19.79-.05.27-.16.51-.25.77-.36 1.01-.82 1.99-1.36 2.92-1.05 1.88-2.29 3.64-3.64 5.31l-.04-.03zm0 0"/><path fill="#fff" fill-rule="evenodd" d="M247.6 60.73l-12.42 1.66c.03 42.73-.94 33.05-1.27 52.61-.8 45.96 3.87 49.91 3.87 49.91h31.48s1.72-33.63 2.09-46.65c.35-12.52-2.36-56.1-2.36-56.1L256.94 61l-5.7 8.2-3.64-8.47zm0 0"/><path fill="#ea718e" fill-rule="evenodd" d="M247.78 164.91h7.77l1.26-92h-10.42l1.39 92zm0 0"/><path fill="#e6e9ee" fill-rule="evenodd" d="M246.65 60.87l.3 43.22-7.5-24.88 4.35-3.89-3.73-3.17 1.17-10.61 5.41-.67zm10.16.11l-.42 43 7.77-24.91-4.35-3.89 3.73-3.17-1.11-10.4-5.62-.63zm0 0"/><path fill="#262225" fill-rule="evenodd" d="M161.72 34.05l4.89 30.86 10.62 2.53 5.4-11.47.5-21.25-13.66-9.27-7.75 8.6zm0 0"/><path fill="#262225" fill-rule="evenodd" d="M156.16 34.1l-.97 8.92s-.12 16.92 13.03 29.7h9.39l-4.93-21.26-16.52-17.36zm0 0"/><path fill="#f4bb82" fill-rule="evenodd" d="M198.49 119.44s2.95 8.12-2.25 12.27c-.98.77-7.31-.91-4.7-1.74 2.62-.83 2.27-7.86 2.27-7.86s-1.8 5.92-3.18 4.77c-.86-.72-.93-2.62.99-6.37.98-1.92 1.07-2.23 1.07-2.23s1.94-1.38 2.89-1.24c1.1.17 2.91 2.4 2.91 2.4"/><path fill="#b3b7c6" fill-rule="evenodd" d="M187.63 62.88l1.01 2.24c.64 1.42 1.55 3.44 2.57 5.91 1.02 2.46 2.18 5.35 3.35 8.51a109.3 109.3 0 0 1 1.72 4.95c.56 1.72 1.09 3.5 1.51 5.48.09.53.19.98.28 1.58l.15 1.31c.1.87.18 1.88.25 2.77.13 1.79.22 3.53.28 5.21.13 3.35.11 6.46.1 9.12-.01 2.66-.09 4.88-.13 6.43-.06 1.56-.09 2.45-.09 2.45l-6.81-.11s-.02-.86-.05-2.37c-.04-1.52-.11-3.69-.19-6.3-.09-2.6-.24-5.63-.44-8.84-.1-1.61-.23-3.26-.39-4.92-.1-.82-.17-1.55-.29-2.41l-.19-1.3-.21-1c-.33-1.45-.81-3.03-1.35-4.59-.53-1.56-1.11-3.11-1.69-4.6a259.89 259.89 0 0 0-3.38-8.17c-1.04-2.38-1.9-4.36-2.51-5.75-.61-1.38-.97-2.16-.97-2.16l7.47-3.44zm0 0"/><path fill="#f8c689" fill-rule="evenodd" d="M143.11 117.88s-3.55 7.87 1.32 12.39c.92.86 7.35-.34 4.81-1.37-2.54-1.02-1.66-8.01-1.66-8.01s1.34 6.04 2.8 5c.92-.66 1.13-2.54-.5-6.43-.84-1.99-.9-2.31-.9-2.31s-1.83-1.52-2.79-1.45c-1.11.09-3.08 2.18-3.08 2.18"/><path fill="#b3b7c6" fill-rule="evenodd" d="M161.29 66.17s-1.24 3.13-3.11 7.83c-.93 2.35-1.99 5.1-3.06 8.05-.54 1.47-1.06 2.99-1.57 4.53-.48 1.52-.99 3.11-1.31 4.53l-.06.28-.02.06c-.01.02.02-.13.01-.06v.02l-.01.04-.03.16-.12.63c-.09.42-.17.84-.22 1.2-.12.74-.24 1.51-.35 2.32-.21 1.6-.38 3.21-.54 4.77-.31 3.12-.56 6.06-.75 8.58-.18 2.53-.33 4.64-.44 6.11l-.14 2.31-6.81-.19s.01-.86.02-2.38c.02-1.5.03-3.65.12-6.23.09-2.58.19-5.59.42-8.84.12-1.63.25-3.31.44-5.04.08-.85.19-1.76.32-2.7.06-.48.14-.9.21-1.31l.1-.63.03-.16.04-.25.08-.35c.4-1.91.91-3.58 1.4-5.27.52-1.66 1.04-3.27 1.57-4.81a356.3 356.3 0 0 1 3-8.33c.91-2.42 1.73-4.41 2.29-5.81.57-1.39.9-2.19.9-2.19l7.59 3.13zm0 0"/><path stroke-width="4.193" stroke="#ffc890" fill="none" fill-rule="evenodd" d="M165.52 190.97v5.89"/><path fill="#ffc890" fill-rule="evenodd" d="M163.85 194.92s-8.71 2.55-10.65 4.89c0 0 9.91.94 13.87-.74l.93-2.68-4.15-1.47zm0 0"/><path fill="#465287" fill-rule="evenodd" d="M155.95 198.14s-6.5.8-6.23 3.55c0 0 11.72.2 14.53-1.21l.54.34h3.41v-1.14s1.14-2.68.14-4.56c0 0-3.08 1.88-6.16 2.55-3.08.67-6.23.47-6.23.47"/><path stroke-width="4.193" stroke="#ffc890" fill="none" fill-rule="evenodd" d="M182.82 190.99l.5 5.88"/><path fill="#ffc890" fill-rule="evenodd" d="M184.86 195.03s8.66 2.7 10.56 5.08c0 0-9.93.76-13.85-.99l-.89-2.69 4.18-1.4zm0 0"/><path fill="#465287" fill-rule="evenodd" d="M192.7 198.39s6.49.92 6.17 3.66c0 0-11.72-.01-14.51-1.47l-.54.32-3.42-.06.02-1.14s-1.09-2.7-.05-4.55c0 0 3.05 1.93 6.12 2.65 3.06.73 6.21.59 6.21.59"/><path fill="#e2b27f" fill-rule="evenodd" d="M165.84 76l-2.04-11.4 1.74-3.75c6.63.2 6.23.15 11.85.82l3.84 11.47s-7.66 7.33-8.34 7.47c-.68.13-7.05-4.61-7.05-4.61"/><path fill="#e2b27f" fill-rule="evenodd" d="M167.56 56.31l.19 4.68 3.46 4.11 4.3-3.24-.88-7.7-7.07 2.15zm0 0"/><path fill="#f8c689" fill-rule="evenodd" d="M159.27 32.19s-5.48 8.64-3.37 13.48c2.1 4.85 6.07 11.48 10.11 12.86 3.09 1.06 9.7-.42 13.28-4.85 3.58-4.42 7.37-7.59 6.11-14.12-1.26-6.53-3.58-12.22-10.75-12.85-7.16-.64-15.38 5.48-15.38 5.48"/><path fill="#a86060" fill-rule="evenodd" d="M165.79 52.8s.43.31 1.05.65c.31.17.68.33 1.06.46.39.09.78.16 1.18.11.2-.03.4-.06.59-.12.19-.1.4-.12.58-.23.17-.11.37-.18.54-.28.16-.12.32-.22.47-.31.31-.19.54-.39.74-.51l.3-.19s-.04.12-.13.33c-.11.2-.22.52-.46.82-.23.33-.54.68-.97.98-.41.3-.96.52-1.55.6-.29.01-.59.02-.87-.05-.29-.03-.54-.17-.79-.26-.46-.25-.83-.56-1.09-.86-.52-.61-.65-1.14-.65-1.14"/><path fill="#382f31" fill-rule="evenodd" d="M163.61 44.45c0 .99-.52 1.8-1.16 1.8-.64 0-1.17-.81-1.17-1.8 0-1 .53-1.81 1.17-1.81.64 0 1.16.81 1.16 1.81m12.66 0c0 .99-.52 1.8-1.17 1.8-.64 0-1.16-.81-1.16-1.8 0-1 .52-1.81 1.16-1.81.65 0 1.17.81 1.17 1.81"/><path fill="#353034" fill-rule="evenodd" d="M165.45 39s-.13.03-.32.06c-.18.01-.46.09-.74.13-.29.04-.61.08-.94.11-.32.05-.65.04-.97.1-.33-.01-.64.05-.96.07-.33.02-.63.05-.9.07-.28.03-.56.03-.74.06-.19.02-.33.02-.33.02l-.07-.09s.08-.06.22-.16c.14-.11.34-.26.6-.41.25-.16.58-.3.93-.42.36-.12.76-.21 1.16-.24.8-.07 1.6.08 2.17.25.58.16.93.35.93.35l-.04.1zm5.95.31s.09-.11.25-.25c.16-.13.4-.36.71-.54.3-.18.68-.36 1.1-.48.41-.15.88-.2 1.35-.25.47 0 .95.02 1.39.13.45.1.85.27 1.18.46.65.41.92.87.92.87l-.04.1-.28-.11c-.17-.08-.44-.14-.75-.22-.63-.13-1.5-.19-2.37-.13-1.73.05-3.42.53-3.42.53l-.04-.11zm0 0"/><path fill="#454c60" fill-rule="evenodd" d="M164.38 94.23s-12.26 14.83-10.69 29.7c2.13 20.24 7.73 65.28 7.73 65.28h6.18l3.77-81.79-1.08-13.46-5.91.27zm0 0"/><path fill="#454c60" fill-rule="evenodd" d="M179.86 94.52s7.64 10.48 6.7 30.81c-.95 20.34.2 63.56.2 63.56l-6.17.53-10.8-81.16-.08-13.5 10.15-.24zm0 0"/><path fill="#3d697c" fill-rule="evenodd" d="M161.37 97.97l21.03 1.19-1.71-5.59-17.91 2.39-1.41 2.01zm0 0"/><path fill="#b9ce31" fill-rule="evenodd" d="M169.6 70.96c8.65 1.09 7.44-9.55 7.62-9.55.85 0 3.32-.34 5.32.77 2.5 1.39 2.05 2.65 1.16 7.44-.88 4.8-2.05 27.69-2.05 27.69l-19.39-.74-.89-18.43c-2.52-1.13-2.52-6.06-1.51-7.19 1.01-1.14 2.02-2.27 3.41-6.82 0 0-.05-2.42 2.8-2 0 0-2.23 8.1 3.53 8.83"/><path fill="#58617f" fill-rule="evenodd" d="M169.49 190.59c0 .6-.48 1.08-1.07 1.08h-7.52c-.59 0-1.07-.48-1.07-1.08v-2.15c0-.59.48-1.07 1.07-1.07h7.52c.59 0 1.07.48 1.07 1.07v2.15zm9.34.37c.05.59.57 1.03 1.16.98l7.49-.65c.59-.05 1.03-.57.98-1.16l-.19-2.14c-.05-.59-.57-1.03-1.16-.98l-7.49.65c-.59.05-1.02.57-.97 1.16l.18 2.14zm0 0"/><path fill="#cbeafe" fill-rule="evenodd" d="M172.76 100.55s.08.98.15 2.45c.07 1.47.1 3.43.11 5.39-.01.98-.03 1.96-.04 2.88.01 1-.55 1.87-1.2 2.29-.67.41-1.31.47-1.74.51-.43 0-.67-.01-.67-.01s.24-.03.66-.09a3.68 3.68 0 0 0 1.59-.65c.55-.41.97-1.19.91-2.05-.01-.92-.03-1.9-.04-2.88.01-1.96.04-3.92.11-5.39.06-1.47.16-2.45.16-2.45"/><path fill="#cbeafe" fill-rule="evenodd" d="M157.6 111.25c1.28-1.72 2.4-3.56 3.4-5.44.5-.93.93-1.91 1.26-2.9.07-.25.17-.49.22-.75.05-.25.12-.5.16-.75l.08-.75-.03-.73-.02-.47h.44c2.75-.02 5.5-.08 8.24-.05 2.75.03 5.49.03 8.24.09l.34.01.04.33c.18 1.61.55 3.25 1.19 4.76.15.38.33.75.53 1.1.09.19.23.34.34.51.11.18.24.33.38.47.14.15.27.31.45.42.17.1.31.27.51.33.19.07.36.18.56.22l.62.11v.05l-.63-.08c-.21-.03-.4-.13-.6-.2-.21-.06-.36-.22-.54-.32-.19-.11-.33-.26-.49-.41-.15-.14-.3-.29-.42-.46-.12-.18-.27-.33-.37-.52-.23-.35-.43-.72-.6-1.1-.7-1.53-1.11-3.17-1.35-4.83l.04.03h-16.48l.05-.05.02.82-.1.8c-.04.27-.12.53-.18.79-.06.27-.17.51-.25.77-.36 1.01-.83 1.99-1.36 2.92-1.06 1.88-2.3 3.64-3.65 5.31l-.04-.03zm0 0"/><path fill="#b3b7c6" fill-rule="evenodd" d="M166.13 60.73l-12.41 1.66c.02 42.73-.94 33.05-1.28 52.61-.79 45.96 3.88 49.91 3.88 49.91h31.47s1.73-33.63 2.09-46.65c.35-12.52-2.36-56.1-2.36-56.1L175.47 61l-5.7 8.2-3.64-8.47zm0 0"/><path fill="#fbf285" fill-rule="evenodd" d="M166.31 164.91h7.78l1.26-92h-10.43l1.39 92zm0 0"/><path fill="#e6e9ee" fill-rule="evenodd" d="M165.18 60.87l.3 43.22-7.49-24.88 4.34-3.89-3.73-3.17 1.18-10.61 5.4-.67zm10.17.11l-.42 43 7.76-24.91-4.34-3.89 3.73-3.17-1.12-10.4-5.61-.63zm0 0"/><path fill="#3a3338" fill-rule="evenodd" d="M155.07 42.83s-7.21-17.6 6.37-19.09c0 0 4.45-.84 6.15-2.12 1.69-1.27 9.47-2.75 14.42 1.7 5.47 4.92 4.72 17.47 6.84 19.8 2.13 2.33 2.97 8.06.64 10.82s-.48 7.35-.27 10.53c.21 3.18-2.12 9.75-3.61 10.81-1.48 1.06-1.48 8.28-1.06 10.19 0 0-11.42-5.32-8.9-12.09 2.75-7.43 0-9.97.42-13.16 0 0 3.39-6.57 3.61-8.69.21-2.12 0-10.39-1.49-12.52-1.48-2.12-7.35-5.09-11.8-6.57 0 0-7.29 2.33-11.32 10.39"/><path fill-rule="evenodd" d="M250.45 213.36c0 1.73-17.66 3.14-39.45 3.14-21.79 0-39.46-1.41-39.46-3.14 0-1.73 17.67-3.13 39.46-3.13s39.45 1.4 39.45 3.13"/><path fill="#f4bb82" fill-rule="evenodd" d="M177.76 124.53s-3.05 9.45 3.1 14.01c1.16.85 8.36-1.34 5.32-2.19-3.03-.84-2.92-8.95-2.92-8.95s2.31 6.74 3.84 5.36c.97-.87.96-3.05-1.4-7.29-1.21-2.16-1.32-2.52-1.32-2.52s-2.29-1.51-3.37-1.3c-1.26.24-3.25 2.88-3.25 2.88"/><path fill="#d2d7ea" fill-rule="evenodd" d="M193.78 62.77s-1.24 3.72-3.01 9.37c-.9 2.82-1.92 6.11-2.94 9.63-.51 1.77-1.02 3.58-1.5 5.42-.46 1.83-.93 3.72-1.26 5.49-.09.45-.18.91-.23 1.31l-.16 1.17-.13 1.48-.06 1.31c-.09 1.75-.09 3.67-.07 5.46.07 3.63.19 7.06.35 10 .17 2.95.32 5.4.42 7.12l.19 2.68-7.79.86s-.13-1.01-.36-2.77c-.22-1.75-.54-4.24-.83-7.26-.28-3.01-.6-6.54-.76-10.37-.08-1.94-.15-3.88-.11-6.05l.04-1.63.08-1.49c.05-.71.14-1.18.2-1.78.07-.59.17-1.11.26-1.64.36-2.15.83-4.14 1.29-6.11.48-1.97.98-3.87 1.47-5.7 1-3.67 1.99-7.05 2.86-9.94.88-2.88 1.67-5.26 2.22-6.94.55-1.67.87-2.63.87-2.63l8.96 3.01zm0 0"/><path fill="#f4bb82" fill-rule="evenodd" d="M240.47 123.78s3.56 9.27-2.34 14.15c-1.11.91-8.42-.89-5.43-1.9 2.98-1 2.44-9.09 2.44-9.09s-1.95 6.85-3.55 5.55c-1.01-.81-1.13-2.99 1.01-7.35 1.09-2.22 1.18-2.58 1.18-2.58s2.2-1.63 3.3-1.49c1.27.18 3.39 2.71 3.39 2.71"/><path fill="#d2d7ea" fill-rule="evenodd" d="M229.96 59.48s.37.94 1.01 2.58c.64 1.64 1.55 3.98 2.59 6.81 1.02 2.84 2.19 6.16 3.38 9.77.6 1.8 1.19 3.68 1.77 5.61.57 1.95 1.15 3.91 1.62 6.04.12.52.25 1.04.35 1.62.1.6.2 1.07.29 1.77l.16 1.48.13 1.63c.15 2.16.2 4.1.22 6.04.05 3.84-.09 7.37-.21 10.4-.12 3.03-.31 5.54-.44 7.3-.13 1.77-.21 2.78-.21 2.78l-7.82-.44s.01-.98.04-2.69c.01-1.72.02-4.18.04-7.13 0-2.94-.06-6.38-.19-10-.07-1.79-.18-3.71-.35-5.45l-.14-1.31-.21-1.47-.22-1.16c-.07-.4-.19-.85-.3-1.29-.42-1.76-.99-3.61-1.55-5.42-.58-1.81-1.18-3.6-1.78-5.33-1.21-3.46-2.41-6.7-3.46-9.46-2.07-5.55-3.51-9.2-3.51-9.2l8.79-3.48zm0 0"/><path fill="#292b2d" fill-rule="evenodd" d="M197.19 204.61s-2.46 2.16-4.93 2.93c-2.46.76-12.92 5.07-10.31 6.15 2.62 1.08 9.7 1.85 12.78.16 3.07-1.7 6.92-2.93 8.31-3.08 1.38-.16 3.23-1.08 2.92-5.54-.31-4.47-8.77-.62-8.77-.62"/><path fill="#454c60" fill-rule="evenodd" d="M192.86 121.25l3.32 80.78h9.54l4.71-73.58-1.11-12.18-16.46-1.11v6.09zm0 0"/><path fill="#58617f" fill-rule="evenodd" d="M206.53 204.8c0 .68-.55 1.23-1.23 1.23h-9.27c-.68 0-1.23-.55-1.23-1.23v-4.46c0-.68.55-1.24 1.23-1.24h9.86c.68 0 1.23.56 1.23 1.24l-.59 4.46zm0 0"/><path fill="#292b2d" fill-rule="evenodd" d="M224.34 204.61s2.46 2.16 4.92 2.93c2.46.76 12.93 5.07 10.31 6.15-2.61 1.08-9.69 1.85-12.77.16-3.08-1.7-6.92-2.93-8.31-3.08-1.38-.16-3.23-1.08-2.92-5.54.3-4.47 8.77-.62 8.77-.62"/><path fill="#454c60" fill-rule="evenodd" d="M228.66 121.25l-3.32 80.78h-9.54l-4.7-73.58 1.1-12.18 16.46-1.11v6.09zm0 0"/><path fill="#58617f" fill-rule="evenodd" d="M214.99 204.8c0 .68.55 1.23 1.23 1.23h9.27c.68 0 1.23-.55 1.23-1.23v-4.46c0-.68-.55-1.24-1.23-1.24h-9.85c-.68 0-1.23.56-1.23 1.24l.58 4.46zm0 0"/><path fill="#13546d" fill-rule="evenodd" d="M226.03 120.06c0 7.57-6.13 13.71-13.7 13.71h-7.98c-7.57 0-13.71-6.14-13.71-13.71 0-7.57 6.14-13.7 13.71-13.7h7.98c7.57 0 13.7 6.13 13.7 13.7"/><path fill="#d2d7ea" fill-rule="evenodd" d="M203.18 55.58l-18.15 3.65s3.44 41.91 3.51 55.89c.06 11.72 1.86 46.9 1.86 46.9h39.05l.53-102.85-19.34-3.59h-7.46zm0 0"/><path fill="#80e872" fill-rule="evenodd" d="M203.36 162.02h7.95l1.29-94h-10.66l1.42 94zm0 0"/><path fill="#fdc78b" fill-rule="evenodd" d="M202.21 47.76v14.56s4.22 3.57 10.38 0V47.76h-10.38zm0 0"/><path fill="#e6e9ee" fill-rule="evenodd" d="M202.21 55.72l.9 43.87-8.25-25.13 4.43-3.98-3.8-3.23 1.2-10.84 5.52-.69zm10.38.11l-1.05 43.52 8.56-25.04-4.44-3.97 3.81-3.24-1.14-10.62-5.74-.65zm0 0"/><path fill-rule="evenodd" d="M202.21 49.7l.01 2.21s4.38 2.89 10.37.02V49.3l-10.38.4zm0 0"/><path fill="#fdc78b" fill-rule="evenodd" d="M221.39 37.85c0 7.44-6.03 13.47-13.47 13.47h-.48c-7.44 0-13.47-6.03-13.47-13.47V24.06c0-7.43 6.03-13.46 13.47-13.46h.48c6.39 0 13.47 7.89 13.47 13.46v13.79zm0 0"/><path fill-rule="evenodd" d="M193.97 24.87v-.81c0-7.01 5.36-12.76 12.21-13.4 2.88.36 5.38 1.39 6.51 1.39h.25c4.59 2.53 8.45 7.9 8.45 12.01v9.69l-.1-.76s-.72-5.66-1.21-7.02c-.41-1.14-2.32-4.33-2.61-6.33-1.93 1-5.85 2.81-7.49 1.9-2.21-1.24-4.83-.91-6.87.33-2.08 1.26-5.26 3.87-9.14 3"/><path fill="#6f2114" fill-rule="evenodd" d="M203.23 32.69a1.285 1.285 0 1 1-1.29-1.29c.71 0 1.29.58 1.29 1.29m12.48 0c0 .71-.57 1.28-1.28 1.28-.71 0-1.29-.57-1.29-1.28 0-.71.58-1.29 1.29-1.29.71 0 1.28.58 1.28 1.29"/><path stroke-linejoin="round" stroke-linecap="round" stroke-width=".527" stroke="#cc6646" fill="none" fill-rule="evenodd" d="M211.09 36.28c0 1.57-1.16 2.84-2.58 2.84-1.43 0-2.59-1.27-2.59-2.84"/><path fill="#db6d27" fill-rule="evenodd" d="M218.68 28.61c0 .05-.15.09-.32.09h-6.84c-.18 0-.33-.04-.33-.09v-.69c0-.05.15-.1.33-.1h6.84c.17 0 .32.05.32.1v.69zm-13.24.12c0 .06-.15.1-.32.1h-6.84c-.18 0-.32-.04-.32-.1V28c0-.05.14-.1.32-.1h6.84c.17 0 .32.05.32.1v.73zm14.9-14.05s2.23 1.71 2.64 2.53c1.74 3.48.97 8.01-.75 15.52l-.94.26s-.4-6.42-.9-7.77c-.49-1.36-3.1-5.58-2.61-7.31.49-1.72 2.56-3.23 2.56-3.23m-25.15 8.07s-.43 7.93-.99 10.69l-1.63-1.2s-.99-7.79-.35-11.68c.63-3.89 2.97 2.19 2.97 2.19"/><path fill="#fdc78b" fill-rule="evenodd" d="M223.49 38.59c0 .54-.43.97-.96.97h-.64c-.53 0-.96-.43-.96-.97v-4.94c0-.53.43-.96.96-.96h.64c.53 0 .96.43.96.96v4.94zm-29.41 0c0 .54-.43.97-.96.97h-.64c-.53 0-.96-.43-.96-.97v-4.94c0-.53.43-.96.96-.96h.64c.53 0 .96.43.96.96v4.94zm0 0"/><path fill="#db6d27" fill-rule="evenodd" d="M218.89 18.28s-6.38 3.74-8.6 2.5c-2.21-1.23-4.83-.9-6.87.34-2.86 1.73-7.81 6.07-13.82.28 0 0 3.45-1.48 3.82-4.19.37-2.71 3.94-4.56 5.79-5.05 1.85-.49 3.32-2.58 6.53-2.34 3.2.25 6.03 1.48 7.26 1.48 1.24 0 5.93-.6 7.4 3.58l-1.51 3.4zm0 0"/><path fill="#712e13" fill-rule="evenodd" d="M416.46 42.22s-3.58 5.56-2.98 11.33c.59 5.76.99 18.47 5.36 23.84 4.37 5.36 25.43-6.96 26.62-13.31 1.19-6.36 2.19-24.04-.4-30.4-2.58-6.36-11.32-7.35-11.32-7.35l-5.76 1.59-11.52 14.3zm0 0"/><path fill="#f4bb82" fill-rule="evenodd" d="M402.7 119.35s-2.95 8.12 2.26 12.28c.98.78 7.31-.91 4.69-1.74-2.61-.83-2.26-7.87-2.26-7.87s1.8 5.93 3.18 4.78c.86-.73.93-2.62-.99-6.38-.98-1.92-1.07-2.23-1.07-2.23s-1.95-1.39-2.89-1.24c-1.11.17-2.92 2.4-2.92 2.4"/><path fill="#b3b7c6" fill-rule="evenodd" d="M421.05 66.16l-.97 2.16c-.61 1.39-1.47 3.38-2.51 5.77-1.03 2.38-2.21 5.17-3.38 8.17-.58 1.49-1.17 3.05-1.69 4.61-.54 1.56-1.03 3.15-1.36 4.59l-.21 1-.19 1.3c-.11.86-.19 1.59-.28 2.42-.17 1.66-.3 3.31-.4 4.92-.2 3.22-.35 6.26-.44 8.86-.08 2.61-.15 4.78-.19 6.3-.03 1.51-.05 2.38-.05 2.38l-6.82.1s-.03-.89-.09-2.45c-.04-1.55-.12-3.77-.13-6.43-.01-2.67-.02-5.78.1-9.14.06-1.68.15-3.42.28-5.21.07-.9.15-1.9.25-2.78l.15-1.3c.09-.61.19-1.06.29-1.59.42-1.99.94-3.77 1.5-5.49.55-1.72 1.14-3.37 1.72-4.95 1.17-3.16 2.34-6.06 3.36-8.53 1.02-2.46 1.94-4.49 2.57-5.91.65-1.42 1.02-2.24 1.02-2.24l7.47 3.44zm0 0"/><path fill="#f4bb82" fill-rule="evenodd" d="M458.15 117.78s3.55 7.88-1.32 12.42c-.92.85-7.36-.35-4.82-1.38 2.55-1.02 1.67-8.02 1.67-8.02s-1.35 6.05-2.81 5c-.92-.65-1.13-2.54.51-6.44.83-1.98.89-2.3.89-2.3s1.84-1.53 2.79-1.45c1.11.08 3.09 2.17 3.09 2.17"/><path fill="#b3b7c6" fill-rule="evenodd" d="M447.55 62.87s.33.8.9 2.21c.56 1.4 1.38 3.38 2.29 5.81.91 2.42 1.95 5.26 3 8.34.53 1.54 1.06 3.16 1.57 4.82.5 1.69 1.01 3.35 1.41 5.27l.07.35.05.25.03.16.1.63c.07.42.14.83.2 1.31.13.95.25 1.85.33 2.7.19 1.74.32 3.42.44 5.05.23 3.25.33 6.27.42 8.85.09 2.59.1 4.74.12 6.25.01 1.51.02 2.38.02 2.38l-6.82.19-.14-2.31c-.11-1.48-.26-3.59-.44-6.12-.18-2.53-.44-5.47-.75-8.6-.16-1.56-.33-3.17-.55-4.77-.1-.82-.22-1.59-.34-2.33-.05-.36-.14-.78-.22-1.2l-.12-.63-.03-.16-.01-.04v-.01c-.02-.08.01.08.01.05l-.02-.06-.06-.28c-.32-1.42-.83-3.01-1.31-4.53-.51-1.54-1.04-3.07-1.57-4.54-1.07-2.95-2.14-5.71-3.07-8.06-1.87-4.71-3.12-7.84-3.12-7.84l7.61-3.14zm0 0"/><path stroke-width="4.199" stroke="#ffc890" fill="none" fill-rule="evenodd" d="M435.71 190.96v5.9"/><path fill="#ffc890" fill-rule="evenodd" d="M437.38 194.92s8.72 2.55 10.67 4.9c0 0-9.93.93-13.89-.74l-.93-2.68 4.15-1.48zm0 0"/><path fill-rule="evenodd" d="M456.07 199.73c0 1.45-15.57 2.63-34.78 2.63s-34.78-1.18-34.78-2.63 15.57-2.62 34.78-2.62 34.78 1.17 34.78 2.62"/><path fill="#465287" fill-rule="evenodd" d="M445.3 198.14s6.5.8 6.23 3.55c0 0-11.73.2-14.55-1.2l-.54.33h-3.42v-1.14s-1.13-2.68-.13-4.56c0 0 3.09 1.88 6.17 2.55 3.08.67 6.24.47 6.24.47"/><path stroke-width="4.199" stroke="#ffc890" fill="none" fill-rule="evenodd" d="M418.39 190.99l-.5 5.88"/><path fill="#ffc890" fill-rule="evenodd" d="M416.35 195.03s-8.67 2.7-10.57 5.09c0 0 9.94.76 13.86-.99l.89-2.7-4.18-1.4zm0 0"/><path fill="#465287" fill-rule="evenodd" d="M408.49 198.39s-6.48.92-6.17 3.67c0 0 11.74-.01 14.53-1.47l.54.32 3.42-.06-.02-1.14s1.09-2.7.05-4.56c0 0-3.05 1.93-6.12 2.66-3.07.72-6.23.58-6.23.58"/><path fill="#efbc86" fill-rule="evenodd" d="M435.39 75.85l2.04-11.41-1.74-3.75c-6.63.19-6.24.15-11.87.82l-3.84 11.48s7.67 7.34 8.35 7.48c.68.13 7.06-4.62 7.06-4.62"/><path fill="#efbc86" fill-rule="evenodd" d="M433.67 56.14l-.19 4.69-3.47 4.11-4.3-3.24.89-7.71 7.07 2.15zm0 0"/><path fill="#f8c689" fill-rule="evenodd" d="M441.97 31.99s5.49 8.65 3.38 13.5c-2.11 4.85-6.08 11.49-10.13 12.87-3.09 1.06-9.71-.42-13.29-4.85-3.59-4.43-7.39-7.6-6.12-14.14 1.26-6.54 3.58-12.24 10.76-12.87 7.17-.63 15.4 5.49 15.4 5.49"/><path fill="#cc7272" fill-rule="evenodd" d="M435.44 52.63s-.14.5-.7 1.04c-.27.28-.65.54-1.12.73-.23.08-.48.17-.75.19-.27.06-.54.02-.82.03-.54-.09-1.05-.26-1.47-.52-.42-.26-.75-.56-.99-.85-.26-.27-.4-.56-.51-.74-.11-.19-.16-.3-.16-.3s.12.05.31.14c.2.09.44.26.76.4.15.08.32.16.48.25.17.08.36.14.54.23.18.09.39.1.57.18.2.06.4.08.59.11.2 0 .4.05.59.02.2-.01.39-.03.58-.07.37-.08.74-.19 1.04-.32.63-.26 1.06-.52 1.06-.52"/><path fill="#6f2114" fill-rule="evenodd" d="M437.62 44.26c0 1 .52 1.81 1.17 1.81.64 0 1.16-.81 1.16-1.81s-.52-1.81-1.16-1.81c-.65 0-1.17.81-1.17 1.81m-12.67 0c0 1 .52 1.81 1.17 1.81.64 0 1.16-.81 1.16-1.81s-.52-1.81-1.16-1.81c-.65 0-1.17.81-1.17 1.81"/><path fill="#712e13" fill-rule="evenodd" d="M435.74 38.7c0 .01.05-.12.18-.27.14-.15.33-.39.62-.58.27-.2.63-.38 1.04-.49.21-.04.43-.12.65-.12.23-.01.46-.03.69-.01.23.02.46.07.69.13.22.03.43.15.63.24.2.08.37.22.53.33.17.11.3.25.42.39.24.24.36.54.45.71.09.19.12.31.12.31l-.07.09s-.08-.06-.22-.16-.34-.24-.6-.37c-.25-.15-.57-.27-.92-.38-.35-.1-.73-.18-1.12-.19-.77-.09-1.55.02-2.12.16-.57.14-.92.31-.92.31l-.05-.1zm-5.95.53s-.13.04-.34.09c-.2.03-.5.13-.83.17-.33.06-.71.08-1.1.1-.2-.01-.4.02-.6.01-.2-.02-.4-.01-.61-.02-.4-.04-.79-.05-1.17-.1-.37-.04-.72-.09-1.04-.14-.3-.03-.6-.13-.8-.13-.2-.02-.34-.06-.34-.06l-.05-.1.28-.11c.18-.09.44-.16.76-.25.65-.16 1.54-.25 2.42-.21 1.77.11 3.45.64 3.45.64l-.03.11zm0 0"/><path fill="#f8c689" fill-rule="evenodd" d="M417.23 41.64s-3.49-2.21-4.32-.55c-.83 1.65.09 6.98 4.5 6.33"/><path fill="#454c60" fill-rule="evenodd" d="M436.86 94.11s12.26 14.84 10.7 29.73c-2.14 20.27-7.74 65.36-7.74 65.36h-6.2l-3.77-81.89 1.08-13.47 5.93.27zm0 0"/><path fill="#454c60" fill-rule="evenodd" d="M421.36 94.4s-7.65 10.49-6.71 30.85c.94 20.36-.2 63.63-.2 63.63l6.17.53 10.81-81.26.09-13.51-10.16-.24zm0 0"/><path fill="#3d697c" fill-rule="evenodd" d="M439.86 97.85l-21.05 1.19 1.71-5.6 17.93 2.4 1.41 2.01zm0 0"/><path fill="#b9ce31" fill-rule="evenodd" d="M431.62 70.81c-8.66 1.09-7.45-9.57-7.62-9.57-.85.01-3.33-.34-5.33.77-2.5 1.39-2.05 2.66-1.17 7.46.89 4.8 2.06 27.72 2.06 27.72l19.42-.74.88-18.45c2.53-1.14 2.53-6.07 1.52-7.2-1.01-1.14-2.02-2.28-3.41-6.83 0 0 .04-2.42-2.81-2 0 0 2.23 8.1-3.54 8.84"/><path fill="#58617f" fill-rule="evenodd" d="M431.73 190.59c0 .59.49 1.07 1.08 1.07h7.52c.6 0 1.08-.48 1.08-1.07v-2.16c0-.59-.48-1.07-1.08-1.07h-7.52c-.59 0-1.08.48-1.08 1.07v2.16zm-9.35.37c-.05.59-.57 1.02-1.16.97l-7.5-.65c-.59-.05-1.02-.57-.97-1.16l.18-2.14c.05-.59.57-1.03 1.17-.98l7.49.65c.59.05 1.03.57.98 1.16l-.19 2.15zm0 0"/><path fill="#cbeafe" fill-rule="evenodd" d="M428.47 100.43s.09.99.15 2.46c.08 1.47.1 3.43.11 5.39l-.03 2.89c-.06.86.36 1.63.91 2.05.56.42 1.17.58 1.58.65.43.06.67.09.67.09s-.24.01-.68.01c-.42-.04-1.07-.1-1.74-.51-.65-.42-1.2-1.29-1.2-2.29-.01-.92-.02-1.9-.04-2.89.01-1.96.04-3.92.11-5.39.07-1.47.16-2.46.16-2.46"/><path fill="#cbeafe" fill-rule="evenodd" d="M443.6 111.18c-1.42-1.62-2.77-3.32-3.87-5.19-.56-.94-1.06-1.91-1.46-2.94-.09-.27-.21-.52-.27-.79-.07-.27-.16-.54-.21-.82l-.11-.85.02-.88.42.48c-2.75.01-5.5.07-8.25.04-2.75-.03-5.5-.02-8.25-.09l.38-.33c-.28 1.7-.74 3.34-1.49 4.89-.19.38-.41.75-.66 1.1-.11.19-.27.34-.4.51-.13.17-.29.32-.46.46-.16.15-.31.3-.51.4-.19.1-.35.25-.57.3-.2.06-.4.16-.61.18l-.64.05v-.05l.62-.08c.21-.03.39-.14.59-.2.2-.06.35-.21.53-.32.18-.1.32-.25.47-.4.16-.14.3-.29.42-.46.12-.17.27-.32.37-.51.22-.35.42-.72.59-1.1.69-1.52 1.1-3.17 1.33-4.82l.01-.04h16.58v.05l-.03.8.1.79c.04.27.12.52.18.78.05.27.16.51.24.77.36 1.01.82 1.98 1.35 2.92 1.05 1.87 2.28 3.64 3.63 5.32l-.04.03zm0 0"/><path fill="#b3b7c6" fill-rule="evenodd" d="M435.1 60.56l12.43 1.67c-.02 42.78.94 33.08 1.28 52.67.79 46.02-3.89 49.98-3.89 49.98h-31.51s-1.72-33.68-2.09-46.72c-.35-12.53 2.36-56.16 2.36-56.16l12.07-1.16 5.51 7.87 3.84-8.15zm0 0"/><path fill="#e24444" fill-rule="evenodd" d="M434.92 164.88h-7.79l-1.26-92.12h10.44l-1.39 92.12zm0 0"/><path fill="#e6e9ee" fill-rule="evenodd" d="M436.05 60.71l-.3 43.27 7.5-24.91-4.34-3.9 3.73-3.17-1.18-10.62-5.41-.67zm-10.18.1l.42 43.06-7.77-24.94 4.35-3.9-3.73-3.17 1.11-10.42 5.62-.63zm0 0"/><path fill="#712e13" fill-rule="evenodd" d="M415.98 48.18c15.11-10.27 16.79-18.02 21.45-18.52 0 0 8.2 11.55 8.2 15.72 0 0 .82-4.96.22-9.13-.59-4.17-3.77-12.91-8.14-12.51 0 0-4.44-2.38-11.2-2.18-6.75.2-13.24 7.89-14.22 22.59l-2.28 8.1s4.48-3.05 5.97-4.07"/><path fill-rule="evenodd" d="M160.31 198.16c0 1.74-17.34 3.15-38.72 3.15-21.39 0-38.72-1.41-38.72-3.15s17.33-3.15 38.72-3.15c21.38 0 38.72 1.41 38.72 3.15"/><path fill="#e2a069" fill-rule="evenodd" d="M89.28 111.82s-2.97 9.52 3.08 14.09c1.14.85 8.2-1.37 5.22-2.22-2.99-.84-2.9-8.99-2.9-8.99s2.28 6.77 3.79 5.38c.94-.88.94-3.07-1.39-7.33-1.19-2.17-1.31-2.53-1.31-2.53s-2.24-1.51-3.31-1.3c-1.23.25-3.18 2.9-3.18 2.9"/><path fill="#d2d7ea" fill-rule="evenodd" d="M106.94 50.54s-1.45 3.68-3.52 9.26c-1.06 2.77-2.26 6.02-3.48 9.51-.61 1.74-1.22 3.54-1.8 5.36-.56 1.81-1.15 3.68-1.57 5.45-.12.45-.23.89-.31 1.29l-.12.63-.07.31-.01.04c0 .04.04-.26.02-.13v.03l-.02.09-.02.19-.2 1.47-.1 1.23c-.13 1.69-.17 3.6-.15 5.38.04 3.6.2 7.02.4 9.96.2 2.94.38 5.39.54 7.11.17 1.69.26 2.66.26 2.66l-7.71 1.08s-.16-1.02-.43-2.79c-.26-1.77-.64-4.28-.97-7.32-.33-3.04-.68-6.6-.82-10.51-.07-1.97-.11-3.94 0-6.18l.1-1.73.16-1.48.02-.19.01-.09.04-.25.07-.42.16-.85c.1-.58.22-1.11.35-1.63.48-2.13 1.06-4.09 1.64-6.05.58-1.94 1.19-3.82 1.78-5.63 1.2-3.62 2.38-6.96 3.4-9.81 1.04-2.85 1.96-5.2 2.6-6.85.64-1.65 1.01-2.59 1.01-2.59l8.74 3.45zm0 0"/><path fill="#e2a069" fill-rule="evenodd" d="M153.02 111.25s3.33 9.4-2.54 14.2c-1.1.9-8.24-1.05-5.3-2.01 2.95-.96 2.56-9.1 2.56-9.1s-2.03 6.86-3.59 5.52c-.97-.83-1.05-3.03 1.12-7.37 1.11-2.22 1.21-2.58 1.21-2.58s2.19-1.6 3.26-1.43c1.24.2 3.28 2.77 3.28 2.77"/><path fill="#d2d7ea" fill-rule="evenodd" d="M141.68 46.93s.41.93 1.12 2.55c.69 1.62 1.7 3.94 2.84 6.74 1.14 2.81 2.44 6.1 3.77 9.67.67 1.79 1.34 3.65 2 5.56.64 1.94 1.3 3.88 1.86 5.99.15.51.29 1.04.41 1.61l.19.84.09.42.05.25.01.09.03.18.21 1.48.17 1.72c.19 2.24.23 4.21.23 6.18.01 3.9-.21 7.47-.43 10.53-.21 3.05-.49 5.57-.69 7.34l-.33 2.81-7.74-.79s.06-.97.16-2.67c.09-1.72.18-4.18.28-7.12.08-2.94.11-6.37.02-9.97-.05-1.77-.16-3.68-.35-5.36l-.14-1.23-.26-1.47-.03-.18-.02-.09-.01-.05c.05.29.01.07.02.13v-.02l-.08-.31-.15-.62c-.09-.4-.21-.84-.35-1.28-.49-1.75-1.15-3.6-1.78-5.38-.65-1.8-1.32-3.58-2-5.29-1.34-3.44-2.67-6.64-3.83-9.37-2.28-5.5-3.86-9.12-3.86-9.12l8.59-3.77zm0 0"/><path fill="#292b2d" fill-rule="evenodd" d="M108.87 189.81s-2.36 2.12-4.72 2.88c-2.37.76-12.42 5-9.91 6.06 2.52 1.06 9.31 1.82 12.27.15 2.96-1.67 6.65-2.88 7.98-3.03 1.33-.15 3.1-1.06 2.81-5.45-.3-4.4-8.43-.61-8.43-.61"/><path fill="#454c60" fill-rule="evenodd" d="M104.72 107.75l3.19 79.52h9.16l4.52-72.43-1.06-12-15.81-1.09v6zm0 0"/><path fill="#58617f" fill-rule="evenodd" d="M117.85 189.99c0 .67-.53 1.21-1.18 1.21h-8.9c-.66 0-1.19-.54-1.19-1.21v-4.39c0-.67.53-1.21 1.19-1.21h9.46c.66 0 1.18.54 1.18 1.21l-.56 4.39zm0 0"/><path fill="#292b2d" fill-rule="evenodd" d="M136 189.81s2.36 2.12 4.73 2.88c2.36.76 12.41 5 9.9 6.06-2.51 1.06-9.31 1.82-12.27.15-2.95-1.67-6.65-2.88-7.98-3.03-1.33-.15-3.1-1.06-2.81-5.45.3-4.4 8.43-.61 8.43-.61"/><path fill="#454c60" fill-rule="evenodd" d="M140.15 107.75l-3.19 79.52h-9.16l-4.52-72.43 1.06-12 15.81-1.09v6zm0 0"/><path fill="#58617f" fill-rule="evenodd" d="M127.02 189.99c0 .67.53 1.21 1.18 1.21h8.91c.65 0 1.18-.54 1.18-1.21v-4.39c0-.67-.53-1.21-1.18-1.21h-9.47c-.65 0-1.18.54-1.18 1.21l.56 4.39zm0 0"/><path fill="#13546d" fill-rule="evenodd" d="M137.66 106.58c0 7.45-5.89 13.49-13.16 13.49h-7.67c-7.27 0-13.16-6.04-13.16-13.49s5.89-13.49 13.16-13.49h7.67c7.27 0 13.16 6.04 13.16 13.49"/><path fill="#d2d7ea" fill-rule="evenodd" d="M115.71 43.09l-17.44 3.6s3.31 41.26 3.38 55.02c.06 11.54 1.78 46.17 1.78 46.17h37.51l.51-101.25-18.58-3.54h-7.16zm0 0"/><path fill="#50c1e9" fill-rule="evenodd" d="M115.88 147.88h7.63l1.24-92.54h-10.23l1.36 92.54zm0 0"/><path fill="#e2a069" fill-rule="evenodd" d="M114.78 35.4v14.33s4.05 3.52 9.97 0V35.4h-9.97zm0 0"/><path fill="#e6e9ee" fill-rule="evenodd" d="M114.78 43.24l.86 43.18-7.92-24.74 4.26-3.91-3.66-3.18 1.15-10.68 5.31-.67zm9.97.1l-1.01 42.85 8.22-24.65-4.26-3.92 3.65-3.18-1.09-10.46-5.51-.64zm0 0"/><path fill-rule="evenodd" d="M114.78 37.31l.01 2.17s4.2 2.85 9.96.02v-2.58l-9.97.39zm0 0"/><path fill="#e2a069" fill-rule="evenodd" d="M133.34 25.79c0 7.33-5.79 13.26-12.94 13.26h-.46c-7.14 0-12.93-5.93-12.93-13.26V12.22c0-7.32 5.79-10.82 12.93-10.82h.46c7.15 0 12.94 3.5 12.94 10.82v13.57zm0 0"/><path fill="#382f31" fill-rule="evenodd" d="M116.22 20.56c0 .7-.55 1.26-1.23 1.26-.68 0-1.23-.56-1.23-1.26s.55-1.26 1.23-1.26c.68 0 1.23.56 1.23 1.26m11.38 0c0 .7-.56 1.26-1.24 1.26-.68 0-1.23-.56-1.23-1.26s.55-1.26 1.23-1.26c.68 0 1.24.56 1.24 1.26"/><path stroke-linejoin="round" stroke-linecap="round" stroke-width=".513" stroke="#cc6646" fill="none" fill-rule="evenodd" d="M123.39 24.09c0 1.55-1.11 2.8-2.48 2.8-1.38 0-2.49-1.25-2.49-2.8"/><path fill="#e2a069" fill-rule="evenodd" d="M107.45 26.38c0 .52-.41.94-.92.94h-.62c-.51 0-.93-.42-.93-.94v-4.87c0-.53.42-.95.93-.95h.62c.51 0 .92.42.92.95v4.87zm27.46 0c0 .52-.42.94-.93.94h-.62c-.51 0-.92-.42-.92-.94v-4.87c0-.53.41-.95.92-.95h.62c.51 0 .93.42.93.95v4.87zm0 0"/><path fill="#35150a" fill-rule="evenodd" d="M105.51 21.29s1.61.27 1.77-.46c1.32-6.34 1.55-17.51 6.44-16.89l10.68.71s7.17-1.36 7.56 11.28c0 0-.59 2.93 1.16 5.7 0 0 4.86-14.69-3.88-19.3 0 0-15.52-3.92-19.4-.92-3.88 2.99-8.41 7.2-4.33 19.88"/><path fill="#ff6969" fill-rule="evenodd" d="M124.29 29.37s-3.01 7.6-8.68.14l8.68-.14zm0 0"/><path fill="#fff" fill-rule="evenodd" d="M124.18 29.35s-.33 1.09-.68 1.2c-.35.11-6.1.11-6.1.11s-1.8-.85-1.71-1.16c.02-.05.18-.02.36-.01 1.55 0 8.13-.14 8.13-.14"/><path fill-rule="evenodd" d="M422.42 209.44c0 1.73-17.67 3.14-39.46 3.14s-39.45-1.41-39.45-3.14c0-1.73 17.66-3.13 39.45-3.13 21.79 0 39.46 1.4 39.46 3.13"/><path fill="#fbc386" fill-rule="evenodd" d="M350.04 123.6s-3.02 9.46 3.14 14c1.16.85 8.35-1.36 5.31-2.2-3.04-.83-2.95-8.94-2.95-8.94s2.33 6.73 3.86 5.35c.96-.87.96-3.05-1.41-7.28-1.22-2.17-1.33-2.52-1.33-2.52s-2.29-1.5-3.38-1.3c-1.25.25-3.24 2.89-3.24 2.89"/><path fill="#fff" fill-rule="evenodd" d="M367.39 62.5s-1.47 3.65-3.58 9.19c-1.07 2.76-2.3 5.99-3.54 9.46-.61 1.73-1.23 3.53-1.83 5.34-.57 1.81-1.17 3.67-1.6 5.45-.12.45-.24.89-.32 1.31l-.13.63-.07.31v.04l-.01.02c.01-.05-.02.15.02-.11l-.02.09-.02.19-.21 1.47-.11 1.25c-.14 1.71-.17 3.62-.16 5.39.03 3.6.24 7.02.45 9.95.24 2.92.43 5.37.6 7.08.18 1.69.28 2.66.28 2.66l-6.74.97-.44-2.78c-.25-1.75-.63-4.25-.94-7.27-.32-3.03-.64-6.57-.8-10.43-.07-1.96-.11-3.92 0-6.13l.11-1.69.16-1.47.02-.19.01-.09.04-.23.08-.42.16-.83c.1-.57.22-1.09.35-1.6.49-2.1 1.08-4.05 1.67-5.98.6-1.92 1.21-3.79 1.82-5.59 1.22-3.58 2.42-6.89 3.47-9.72 1.06-2.82 1.99-5.15 2.63-6.78.66-1.64 1.04-2.58 1.04-2.58l7.61 3.09zm0 0"/><path fill="#fbc386" fill-rule="evenodd" d="M415 123.03s3.39 9.34-2.59 14.12c-1.13.89-8.4-1.04-5.4-2 3.01-.95 2.6-9.05 2.6-9.05s-2.06 6.82-3.65 5.49c-.99-.83-1.07-3.01 1.14-7.33 1.13-2.2 1.23-2.56 1.23-2.56s2.23-1.59 3.32-1.43c1.27.2 3.35 2.76 3.35 2.76"/><path fill="#fff" fill-rule="evenodd" d="M402.81 59.27l1.13 2.53c.71 1.61 1.73 3.9 2.89 6.68 1.16 2.78 2.48 6.04 3.84 9.58.68 1.77 1.37 3.61 2.04 5.51.65 1.91 1.32 3.83 1.89 5.91.15.51.3 1.02.42 1.59l.19.82.09.41.05.24.02.09.02.18.22 1.47.17 1.68c.19 2.21.23 4.17.24 6.13-.01 3.87-.2 7.42-.4 10.45-.19 3.03-.48 5.55-.66 7.31l-.33 2.78-6.77-.7s.06-.97.17-2.67c.11-1.71.21-4.17.33-7.1.1-2.93.17-6.36.06-9.96-.05-1.77-.16-3.68-.36-5.37l-.16-1.26-.26-1.46-.03-.18-.02-.09c.05.25.01.06.02.11l-.01-.02-.01-.04-.08-.31-.15-.63c-.09-.41-.23-.85-.36-1.3-.51-1.75-1.18-3.59-1.82-5.37-.66-1.8-1.35-3.56-2.03-5.27-1.37-3.42-2.72-6.6-3.9-9.32-2.32-5.45-3.93-9.05-3.93-9.05l7.49-3.37zm0 0"/><path fill="#292b2d" fill-rule="evenodd" d="M370.01 201.14s-2.41 2.11-4.82 2.86-12.65 4.97-10.09 6.03c2.56 1.05 9.49 1.8 12.5.15 3.01-1.66 6.78-2.86 8.13-3.02 1.36-.15 3.16-1.05 2.86-5.42-.3-4.37-8.58-.6-8.58-.6"/><path fill="#454c60" fill-rule="evenodd" d="M365.77 119.55l3.26 79.07h9.33l4.61-72.02-1.08-11.93-16.12-1.08v5.96zm0 0"/><path fill="#58617f" fill-rule="evenodd" d="M379.16 201.32c0 .67-.54 1.2-1.21 1.2h-9.07a1.2 1.2 0 0 1-1.21-1.2v-4.37c0-.66.54-1.2 1.21-1.2h9.64c.67 0 1.21.54 1.21 1.2l-.57 4.37zm0 0"/><path fill="#292b2d" fill-rule="evenodd" d="M397.65 201.14s2.41 2.11 4.82 2.86 12.65 4.97 10.09 6.03c-2.56 1.05-9.49 1.8-12.5.15-3.01-1.66-6.78-2.86-8.13-3.02-1.36-.15-3.17-1.05-2.87-5.42.31-4.37 8.59-.6 8.59-.6"/><path fill="#454c60" fill-rule="evenodd" d="M401.88 119.55l-3.25 79.07h-9.33l-4.61-72.02 1.08-11.93 16.11-1.08v5.96zm0 0"/><path fill="#58617f" fill-rule="evenodd" d="M388.5 201.32c0 .67.54 1.2 1.21 1.2h9.07c.66 0 1.2-.53 1.2-1.2v-4.37c0-.66-.54-1.2-1.2-1.2h-9.65c-.66 0-1.2.54-1.2 1.2l.57 4.37zm0 0"/><path fill="#13546d" fill-rule="evenodd" d="M399.34 118.38c0 7.41-6 13.42-13.41 13.42h-7.82c-7.4 0-13.41-6.01-13.41-13.42 0-7.4 6.01-13.41 13.41-13.41h7.82c7.41 0 13.41 6.01 13.41 13.41"/><path fill="#fff" fill-rule="evenodd" d="M376.97 55.27l-17.76 3.57s3.36 41.03 3.43 54.7c.06 11.48 1.82 45.91 1.82 45.91h38.22l.53-100.66-18.93-3.52h-7.31zm0 0"/><path fill="#e8a02d" fill-rule="evenodd" d="M377.15 159.45h7.78l1.26-92h-10.43l1.39 92zm0 0"/><path fill="#fbc386" fill-rule="evenodd" d="M376.03 47.61v14.25s4.12 3.5 10.16 0V47.61h-10.16zm0 0"/><path fill="#e6e9ee" fill-rule="evenodd" d="M376.02 55.41l.89 42.93-8.08-24.59 4.34-3.89-3.73-3.17 1.18-10.61 5.4-.67zm10.17.11l-1.03 42.6 8.37-24.51-4.34-3.9 3.73-3.16-1.12-10.4-5.61-.63zm0 0"/><path fill-rule="evenodd" d="M376.03 49.52l.01 2.16s4.28 2.83 10.15.01v-2.56l-10.16.39zm0 0"/><path fill="#fbc386" fill-rule="evenodd" d="M394.8 37.92c0 7.28-5.91 13.18-13.19 13.18h-.47c-7.28 0-13.18-5.9-13.18-13.18v-13.5c0-7.28 5.9-10.76 13.18-10.76h.47c7.28 0 13.19 3.48 13.19 10.76v13.5zm0 0"/><path fill="#333638" fill-rule="evenodd" d="M366.37 37.18s-1.81-12.79 1.14-18.11c0 0 3.78-5.39 4.04-8.17 0 0 1.62 1.42 1.53 2.35 0 0 2.46-3.22 1.32-8.04 0 0 3.7 4.17 3.88 4.82 0 0 1.49-2.6.88-3.25 0 0 2.02 1.39 2.38 2.6 0 0 14.16 3.53 14.51 10.76.36 7.23-.44 15.53-1.05 18.08h-1.15s1.06-11.78.62-13.17c-.44-1.39-2.37-3.43-3.34-3.62-.97-.19-2.91-.65-4.31-.47-1.41.19-3.17.98-5.28 1.07-2.12.09-5.81-1.42-6.6-1.42s-4.2 1.38-5.34 5.18c-1.14 3.8-.97 11.59-.97 11.59l-2.26-.2zm0 0"/><path fill="#6f2114" fill-rule="evenodd" d="M377.5 32.86a1.255 1.255 0 1 1-2.51.01 1.255 1.255 0 0 1 2.51-.01m11.59 0a1.261 1.261 0 0 1-2.52 0c0-.69.56-1.25 1.26-1.25.69 0 1.26.56 1.26 1.25"/><path stroke-linejoin="round" stroke-linecap="round" stroke-width=".516" stroke="#cc6646" fill="none" fill-rule="evenodd" d="M384.8 36.37c0 1.54-1.13 2.79-2.53 2.79s-2.53-1.25-2.53-2.79"/><path fill="#fbc386" fill-rule="evenodd" d="M368.07 38.64c0 .52-.42.95-.94.95h-.63c-.52 0-.94-.43-.94-.95V33.8c0-.52.42-.94.94-.94h.63c.52 0 .94.42.94.94v4.84zm28.47 0c0 .52-.43.95-.95.95h-.62c-.52 0-.95-.43-.95-.95V33.8c0-.52.43-.94.95-.94h.62c.52 0 .95.42.95.94v4.84zm0 0"/><path fill="#333638" fill-rule="evenodd" d="M379.18 28.71c0 .17-.14.31-.31.31h-6.7c-.17 0-.31-.14-.31-.31v-1c0-.18.14-.32.31-.32h6.7c.17 0 .31.14.31.32v1zm12.76 0c0 .17-.14.31-.31.31h-6.7c-.17 0-.31-.14-.31-.31v-1c0-.18.14-.32.31-.32h6.7c.17 0 .31.14.31.32v1zm0 0"/><path fill="#2c586f" fill-rule="evenodd" d="M395.31 71.98h-.7v.13l.73.2-.03-.33zm.57.92l-1.1 3.77 1.45.23.5-4h-.85zm.26 13.46c0 .31-.25.56-.56.56h-.42c-.32 0-.57-.25-.57-.56v-3.71c0-.31.25-.56.57-.56h.42c.31 0 .56.25.56.56v3.71zm0 0"/><path fill="#a5d9e7" fill-rule="evenodd" d="M396.39 82.37c0 .31-.25.56-.56.56h-.92a.56.56 0 0 1-.56-.56V77.2c0-.32.25-.57.56-.57h.92c.31 0 .56.25.56.57v5.17zm.7-9.43c0 .12-.11.22-.24.21l-1.33-.08a.224.224 0 0 1-.21-.24l.07-1.14c0-.13.11-.22.23-.21l1.34.08c.12.01.22.11.21.24l-.07 1.14zm0 0"/><path fill="#2c586f" fill-rule="evenodd" d="M397.97 66.63s1.69-1.07 2.63 1.31c0 0 .78 2.28-1.31 2.65l-1.32-3.96zm0 0"/><path stroke-width=".177" stroke="#2c586f" fill="none" fill-rule="evenodd" d="M399.88 70.05v2.97"/><path fill="#2c586f" fill-rule="evenodd" d="M399.18 74.41l.34-1.39h.67l.28 1.39h-1.29zm0 0"/><path fill="#a5d9e7" fill-rule="evenodd" d="M400.49 74.45v12.02c0 .38-.19.68-.56.68h-.2c-.37 0-.56-.3-.56-.68V74.42m.74-6.28c.38 1.08.12 2.16-.57 2.4-.7.24-1.57-.43-1.95-1.51-.38-1.08-.12-2.16.58-2.4.69-.24 1.56.43 1.94 1.51"/><path fill="#f7f1f1" fill-rule="evenodd" d="M392.81 87.69h8.82v-8.05h-8.82v8.05zm0 0"/><path stroke-width=".32" stroke="#c4c8ce" fill="none" fill-rule="evenodd" d="M392.81 87.69h8.82v-8.05h-8.82v8.05zm0 0"/><path fill="#ff6969" fill-rule="evenodd" d="M385.71 41.62s-3.06 7.55-8.84.14l8.84-.14zm0 0"/><path fill="#fff" fill-rule="evenodd" d="M385.41 41.42s-.14 1.06-.5 1.16c-.35.11-6.22.11-6.22.11s-.81.17-1.13-.81c-.32-1 7.85-.46 7.85-.46"/><path fill-rule="evenodd" d="M330.36 205.03c0 1.6-16.33 2.9-36.47 2.9-20.15 0-36.48-1.3-36.48-2.9 0-1.6 16.33-2.9 36.48-2.9 20.14 0 36.47 1.3 36.47 2.9"/><path fill="#ffe1ad" fill-rule="evenodd" d="M262.22 125.66s-2.79 8.75 2.9 12.95c1.07.79 7.73-1.26 4.92-2.03-2.81-.78-2.73-8.27-2.73-8.27s2.15 6.22 3.57 4.94c.89-.8.88-2.82-1.31-6.73-1.12-2-1.23-2.33-1.23-2.33s-2.12-1.39-3.12-1.19c-1.16.22-3 2.66-3 2.66"/><path fill="#d2d7ea" fill-rule="evenodd" d="M278.79 69.39s-1.35 3.37-3.31 8.48c-.99 2.55-2.12 5.54-3.27 8.73-.57 1.6-1.14 3.25-1.69 4.92-.53 1.67-1.08 3.38-1.48 5-.11.41-.22.82-.29 1.19l-.12.57-.06.28-.01.04v.02c.01-.06-.02.15.02-.12l-.02.08-.02.17-.19 1.36-.1 1.13c-.12 1.54-.15 3.3-.14 4.93.04 3.31.19 6.46.38 9.16s.37 4.96.52 6.54c.15 1.56.24 2.45.24 2.45l-7.17 1.03-.41-2.57c-.24-1.63-.6-3.94-.91-6.74-.31-2.81-.64-6.08-.77-9.68-.07-1.82-.1-3.63 0-5.72l.1-1.59.15-1.36.02-.17.01-.09.04-.24.07-.39.15-.78c.1-.53.21-1.02.33-1.5.46-1.96 1.01-3.77 1.55-5.57.55-1.78 1.12-3.51 1.68-5.17 1.13-3.33 2.24-6.39 3.21-9.01.97-2.61 1.84-4.77 2.44-6.28.6-1.52.95-2.39.95-2.39l8.1 3.29zm0 0"/><path fill="#ffe1ad" fill-rule="evenodd" d="M322.28 125.14s3.13 8.63-2.4 13.05c-1.04.82-7.76-.96-4.99-1.85 2.78-.88 2.41-8.36 2.41-8.36s-1.91 6.3-3.38 5.07c-.91-.76-.99-2.78 1.06-6.77 1.04-2.04 1.13-2.37 1.13-2.37s2.07-1.48 3.08-1.32c1.17.18 3.09 2.55 3.09 2.55"/><path fill="#d2d7ea" fill-rule="evenodd" d="M311.53 65.95s.38.85 1.05 2.34c.65 1.49 1.6 3.61 2.67 6.19 1.07 2.58 2.3 5.59 3.55 8.87.63 1.65 1.26 3.35 1.88 5.11.61 1.78 1.23 3.57 1.76 5.51.14.47.28.95.39 1.48l.18.78.09.39.05.23.01.09.03.17.2 1.36.16 1.58c.18 2.08.22 3.89.22 5.71.01 3.6-.2 6.89-.4 9.7-.2 2.82-.47 5.14-.65 6.77-.2 1.65-.31 2.59-.31 2.59l-7.2-.75s.05-.89.15-2.46c.09-1.58.17-3.85.26-6.55.09-2.71.12-5.86.03-9.17-.05-1.63-.15-3.39-.33-4.92l-.14-1.13-.25-1.35-.03-.17-.01-.08c.05.27.01.06.02.12v-.02l-.01-.03-.08-.29-.14-.56c-.08-.37-.2-.77-.33-1.18-.46-1.61-1.08-3.3-1.67-4.94-.61-1.65-1.25-3.28-1.88-4.85-1.27-3.15-2.52-6.09-3.6-8.59-2.15-5.04-3.64-8.36-3.64-8.36l7.97-3.59zm0 0"/><path fill="#292b2d" fill-rule="evenodd" d="M280.68 197.35s-2.23 1.95-4.45 2.65c-2.23.7-11.7 4.6-9.33 5.57 2.37.97 8.77 1.67 11.55.14 2.79-1.53 6.27-2.65 7.52-2.79 1.26-.14 2.93-.97 2.65-5.01-.28-4.04-7.94-.56-7.94-.56"/><path fill="#454c60" fill-rule="evenodd" d="M276.77 121.92l3.01 73.1h8.63l4.26-66.59-1.01-11.02-14.89-1v5.51zm0 0"/><path fill="#58617f" fill-rule="evenodd" d="M289.14 197.52c0 .62-.5 1.11-1.11 1.11h-8.39c-.62 0-1.12-.49-1.12-1.11v-4.04c0-.61.5-1.11 1.12-1.11h8.92c.61 0 1.11.5 1.11 1.11l-.53 4.04zm0 0"/><path fill="#292b2d" fill-rule="evenodd" d="M306.24 197.35s2.23 1.95 4.45 2.65c2.23.7 11.7 4.6 9.33 5.57-2.36.97-8.77 1.67-11.55.14-2.79-1.53-6.27-2.65-7.52-2.79-1.26-.14-2.93-.97-2.65-5.01.28-4.04 7.94-.56 7.94-.56"/><path fill="#454c60" fill-rule="evenodd" d="M310.15 121.92l-3 73.1h-8.63l-4.26-66.59 1-11.02 14.89-1v5.51zm0 0"/><path fill="#58617f" fill-rule="evenodd" d="M297.78 197.52c0 .62.5 1.11 1.12 1.11h8.38c.62 0 1.12-.49 1.12-1.11v-4.04c0-.61-.5-1.11-1.12-1.11h-8.92c-.61 0-1.11.5-1.11 1.11l.53 4.04zm0 0"/><path fill="#13546d" fill-rule="evenodd" d="M307.81 120.84c0 6.85-5.56 12.4-12.41 12.4h-7.22c-6.85 0-12.4-5.55-12.4-12.4 0-6.85 5.55-12.4 12.4-12.4h7.22c6.85 0 12.41 5.55 12.41 12.4"/><path fill="#d2d7ea" fill-rule="evenodd" d="M287.12 62.48l-16.42 3.31s3.11 37.93 3.17 50.58c.06 10.61 1.68 42.44 1.68 42.44h35.34l.49-93.07-17.51-3.26h-6.75zm0 0"/><path fill="#50c1e9" fill-rule="evenodd" d="M287.29 158.81h7.19l1.16-85.06h-9.63l1.28 85.06zm0 0"/><path fill="#ffe1ad" fill-rule="evenodd" d="M286.25 55.41v13.17s3.81 3.24 9.39 0V55.41h-9.39zm0 0"/><path fill="#e6e9ee" fill-rule="evenodd" d="M286.24 62.62l.82 39.69-7.47-22.73 4.02-3.6-3.45-2.93 1.09-9.81 4.99-.62zm9.4.1l-.95 39.38 7.74-22.66-4.01-3.6 3.44-2.93-1.03-9.61-5.19-.58zm0 0"/><path fill-rule="evenodd" d="M286.25 57.17l.01 2s3.95 2.61 9.38.01v-2.37l-9.39.36zm0 0"/><path fill="#ffe1ad" fill-rule="evenodd" d="M303.6 46.44c0 6.73-5.46 12.19-12.19 12.19h-.43c-6.73 0-12.19-5.46-12.19-12.19V33.97c0-6.73 5.46-12.19 12.19-12.19h.43c6.73 0 12.19 5.46 12.19 12.19v12.47zm0 0"/><path fill="#6f2114" fill-rule="evenodd" d="M288.12 41.77c0 .64-.52 1.16-1.17 1.16a1.16 1.16 0 0 1 0-2.32c.65 0 1.17.52 1.17 1.16m10.71 0c0 .64-.52 1.16-1.16 1.16-.65 0-1.17-.52-1.17-1.16 0-.64.52-1.16 1.17-1.16.64 0 1.16.52 1.16 1.16"/><path stroke-linejoin="round" stroke-linecap="round" stroke-width=".477" stroke="#cc6646" fill="none" fill-rule="evenodd" d="M294.36 45.02c0 1.42-1.05 2.57-2.34 2.57-1.29 0-2.34-1.15-2.34-2.57"/><path fill="#ffe1ad" fill-rule="evenodd" d="M278.89 47.12c0 .48-.39.87-.87.87h-.58a.87.87 0 0 1-.87-.87v-4.48c0-.48.39-.87.87-.87h.58c.48 0 .87.39.87.87v4.48zm25.69 0c0 .48-.38.87-.87.87h-.58a.87.87 0 0 1-.87-.87v-4.48c0-.48.39-.87.87-.87h.58c.49 0 .87.39.87.87v4.48zm0 0"/><path fill-rule="evenodd" d="M282.72 25.14s0 3.27 7.91 2.18c7.9-1.09 11.46 3.55 13.24 6.09l-1.09-6.89-10.52-2.83s-5.59-1.25-6.74-.9c-1.14.34-2.8 2.35-2.8 2.35"/><path fill="#ce7d50" fill-rule="evenodd" d="M283.1 22.36s.14-8.08 14.31-5.46c14.17 2.61 6.58 18.32 6.58 18.32s-1.6-7.93-8.37-8.94c-6.77-1.02-13.06 2.75-12.52-3.92"/><path fill="#ce7d50" fill-rule="evenodd" d="M284.46 24.78s-5.33 1.02-5.69 17.34c0 0-9.65-16.54 6.24-21.33l-.55 3.99zm5.25 12.94c0 .05-.13.1-.29.1h-6.19c-.16 0-.29-.05-.29-.1v-1.3c0-.06.13-.1.29-.1h6.19c.16 0 .29.04.29.1v1.3zm11.8.01c0 .05-.13.09-.29.09h-6.19c-.16 0-.29-.04-.29-.09v-1.12c0-.05.13-.09.29-.09h6.19c.16 0 .29.04.29.09v1.12zm0 0"/><path fill="#2c586f" fill-rule="evenodd" d="M304.07 77.94h-.64v.11l.67.2-.03-.31zm.54.84l-1.02 3.5 1.34.21.46-3.71h-.78zm.24 12.45c0 .29-.24.52-.52.52h-.4c-.28 0-.52-.23-.52-.52V87.8c0-.28.24-.52.52-.52h.4c.28 0 .52.24.52.52v3.43zm0 0"/><path fill="#a5d9e7" fill-rule="evenodd" d="M305.07 87.54c0 .29-.23.52-.52.52h-.84c-.29 0-.53-.23-.53-.52v-4.78c0-.29.24-.52.53-.52h.84c.29 0 .52.23.52.52v4.78zm.65-8.72a.2.2 0 0 1-.22.2l-1.23-.08a.2.2 0 0 1-.2-.22l.07-1.05c0-.12.1-.2.22-.2l1.23.08c.12.01.21.1.2.22l-.07 1.05zm0 0"/><path fill="#2c586f" fill-rule="evenodd" d="M306.53 72.99s1.57-.98 2.44 1.21c0 0 .72 2.11-1.21 2.45l-1.23-3.66zm0 0"/><path stroke-width=".163" stroke="#2c586f" fill="none" fill-rule="evenodd" d="M308.3 76.16v2.74"/><path fill="#2c586f" fill-rule="evenodd" d="M307.65 80.19l.31-1.29h.63l.26 1.29h-1.2zm0 0"/><path fill="#a5d9e7" fill-rule="evenodd" d="M308.87 80.22v11.12c0 .34-.18.62-.52.62h-.19c-.34 0-.52-.28-.52-.62V80.19m.69-5.8c.35 1 .11 1.99-.53 2.22-.64.22-1.45-.4-1.8-1.4-.35-1-.11-1.99.53-2.22.64-.22 1.45.4 1.8 1.4"/><path fill="#f7f1f1" fill-rule="evenodd" d="M301.76 92.46h8.16v-7.44h-8.16v7.44zm0 0"/><path stroke-width=".296" stroke="#c4c8ce" fill="none" fill-rule="evenodd" d="M301.76 92.46h8.16v-7.44h-8.16v7.44zm0 0"/><path fill="#ff6969" fill-rule="evenodd" d="M295.53 50.01s-2.83 6.98-8.17.13l8.17-.13zm0 0"/><path fill="#fff" fill-rule="evenodd" d="M295.25 49.82s-.13.98-.46 1.08c-.32.1-5.75.1-5.75.1s-.75.16-1.04-.76c-.3-.91 7.25-.42 7.25-.42"/><path fill-rule="evenodd" d="M78.91 201.95c0 1.67-17.66 3.03-39.45 3.03-21.79 0-39.46-1.36-39.46-3.03 0-1.68 17.67-3.04 39.46-3.04s39.45 1.36 39.45 3.04"/><path fill="#f4bb82" fill-rule="evenodd" d="M6.54 118.83S3.51 128 9.67 132.39c1.16.82 8.35-1.32 5.32-2.13-3.04-.81-2.95-8.66-2.95-8.66s2.32 6.52 3.86 5.18c.96-.84.95-2.95-1.42-7.05-1.22-2.09-1.33-2.44-1.33-2.44s-2.29-1.45-3.38-1.25c-1.25.24-3.23 2.79-3.23 2.79"/><path fill="#d2d7ea" fill-rule="evenodd" d="M24.37 59.98s-1.47 3.51-3.57 8.86c-1.07 2.66-2.3 5.78-3.53 9.12a180.1 180.1 0 0 0-1.83 5.14c-.57 1.74-1.16 3.52-1.6 5.22-.12.43-.24.86-.31 1.24l-.23 1.07-.21 1.43-.1 1.18c-.14 1.59-.17 3.44-.16 5.15.04 3.46.21 6.76.41 9.59.21 2.83.4 5.2.57 6.85.17 1.64.26 2.57.26 2.57l-7.62 1.13s-.17-.98-.45-2.7c-.26-1.7-.65-4.13-.98-7.07-.33-2.95-.69-6.39-.83-10.17-.07-1.92-.11-3.82.01-6.03.03-.55.06-1.15.11-1.67l.16-1.43.02-.18.04-.25.02-.1.08-.41.16-.83c.11-.57.24-1.07.37-1.57.5-2.06 1.09-3.96 1.68-5.84.59-1.87 1.21-3.68 1.82-5.42 1.22-3.48 2.42-6.68 3.46-9.42 1.06-2.73 1.99-4.98 2.63-6.57.66-1.58 1.03-2.48 1.03-2.48l8.59 3.59zm0 0"/><path fill="#f4bb82" fill-rule="evenodd" d="M71.49 118.29s3.39 9.04-2.59 13.66c-1.13.87-8.4-1.01-5.4-1.93 3.01-.93 2.61-8.76 2.61-8.76s-2.07 6.6-3.66 5.31c-.99-.8-1.07-2.91 1.14-7.09 1.13-2.14 1.23-2.49 1.23-2.49s2.23-1.54 3.32-1.38c1.27.19 3.35 2.68 3.35 2.68"/><path fill="#d2d7ea" fill-rule="evenodd" d="M59.77 56.22l1.13 2.45c.71 1.55 1.73 3.77 2.89 6.46a343.7 343.7 0 0 1 3.83 9.28c.68 1.71 1.37 3.5 2.04 5.34.66 1.86 1.33 3.73 1.91 5.77.14.5.29.99.42 1.56l.2.81.09.41.03.1.05.25.02.18.22 1.43c.07.5.13 1.11.18 1.66.21 2.21.25 4.1.26 6.02.01 3.79-.22 7.25-.44 10.2-.21 2.96-.5 5.4-.69 7.11-.22 1.73-.34 2.72-.34 2.72l-7.66-.82s.05-.94.16-2.58c.1-1.66.19-4.04.29-6.87.09-2.84.12-6.15.03-9.61-.06-1.71-.16-3.56-.36-5.14-.06-.4-.09-.74-.16-1.18l-.26-1.42-.27-1.06c-.09-.38-.23-.81-.36-1.23-.51-1.67-1.17-3.44-1.81-5.15-.66-1.73-1.35-3.43-2.03-5.07-1.36-3.29-2.71-6.36-3.88-8.98-2.32-5.26-3.92-8.72-3.92-8.72l8.43-3.92zm0 0"/><path fill="#292b2d" fill-rule="evenodd" d="M26.5 193.91s-2.41 2.04-4.82 2.77-12.65 4.81-10.09 5.83c2.56 1.02 9.49 1.75 12.5.15 3.01-1.61 6.78-2.77 8.13-2.92 1.36-.14 3.17-1.02 2.87-5.25-.31-4.23-8.59-.58-8.59-.58"/><path fill="#454c60" fill-rule="evenodd" d="M22.27 114.91l3.25 76.55h9.33l4.61-69.73-1.08-11.54-16.11-1.05v5.77zm0 0"/><path fill="#58617f" fill-rule="evenodd" d="M35.65 194.08c0 .65-.54 1.17-1.21 1.17h-9.07c-.66 0-1.2-.52-1.2-1.17v-4.22c0-.65.54-1.17 1.2-1.17h9.65c.66 0 1.2.52 1.2 1.17l-.57 4.22zm0 0"/><path fill="#292b2d" fill-rule="evenodd" d="M54.14 193.91s2.41 2.04 4.82 2.77 12.65 4.81 10.09 5.83c-2.56 1.02-9.49 1.75-12.5.15-3.01-1.61-6.78-2.77-8.13-2.92-1.36-.14-3.16-1.02-2.86-5.25.3-4.23 8.58-.58 8.58-.58"/><path fill="#454c60" fill-rule="evenodd" d="M58.38 114.91l-3.26 76.55h-9.33l-4.61-69.73 1.08-11.54 16.12-1.05v5.77zm0 0"/><path fill="#58617f" fill-rule="evenodd" d="M44.99 194.08c0 .65.54 1.17 1.21 1.17h9.07c.67 0 1.21-.52 1.21-1.17v-4.22c0-.65-.54-1.17-1.21-1.17h-9.65c-.66 0-1.2.52-1.2 1.17l.57 4.22zm0 0"/><path fill="#13546d" fill-rule="evenodd" d="M55.84 113.78c0 7.18-6.01 12.99-13.42 12.99h-7.81c-7.41 0-13.42-5.81-13.42-12.99 0-7.17 6.01-12.98 13.42-12.98h7.81c7.41 0 13.42 5.81 13.42 12.98"/><path fill="#d2d7ea" fill-rule="evenodd" d="M33.47 52.67L15.7 56.13s3.36 39.73 3.44 52.97c.06 11.11 1.81 44.45 1.81 44.45h38.22l.53-97.47-18.93-3.41h-7.3zm0 0"/><path fill="#528be8" fill-rule="evenodd" d="M33.64 153.55h7.78l1.26-89.09H32.26l1.38 89.09zm0 0"/><path fill="#fbc386" fill-rule="evenodd" d="M32.52 45.26v13.8s4.12 3.38 10.16 0v-13.8H32.52zm0 0"/><path fill="#e6e9ee" fill-rule="evenodd" d="M32.51 52.81l.89 41.57-8.08-23.81 4.34-3.77-3.73-3.07 1.18-10.27 5.4-.65zm10.17.1l-1.03 41.25 8.37-23.73-4.34-3.77 3.73-3.07-1.11-10.07-5.62-.61zm0 0"/><path fill-rule="evenodd" d="M32.52 47.1l.01 2.1s4.28 2.74 10.15.01v-2.48l-10.16.37zm0 0"/><path fill="#fbc386" fill-rule="evenodd" d="M51.29 35.87c0 7.05-5.9 12.77-13.18 12.77h-.47c-7.28 0-13.19-5.72-13.19-12.77V22.81c0-7.05 5.91-10.42 13.19-10.42h.47c7.28 0 13.18 3.37 13.18 10.42v13.06zm0 0"/><path fill="#382f31" fill-rule="evenodd" d="M33.99 30.98c0 .67-.56 1.22-1.26 1.22-.69 0-1.25-.55-1.25-1.22 0-.67.56-1.22 1.25-1.22.7 0 1.26.55 1.26 1.22m11.59.15c0 .68-.56 1.22-1.26 1.22-.69 0-1.26-.54-1.26-1.22 0-.67.57-1.21 1.26-1.21.7 0 1.26.54 1.26 1.21"/><path stroke-linejoin="round" stroke-linecap="round" stroke-width=".508" stroke="#cc6646" fill="none" fill-rule="evenodd" d="M41.29 34.38c0 1.49-1.13 2.7-2.53 2.7s-2.53-1.21-2.53-2.7"/><path fill="#3a3338" fill-rule="evenodd" d="M35.67 25.61c0 .08-.14.15-.31.15h-6.7c-.17 0-.31-.07-.31-.15v-1.09c0-.08.14-.14.31-.14h6.7c.17 0 .31.06.31.14v1.09zm12.77.05c0 .09-.15.16-.32.16h-6.69c-.18 0-.32-.07-.32-.16v-1.19c0-.08.14-.16.32-.16h6.69c.17 0 .32.08.32.16v1.19zm0 0"/><path fill="#2c586f" fill-rule="evenodd" d="M51.8 68.85h-.69v.13l.72.2-.03-.33zm.57.89l-1.1 3.66 1.46.22.49-3.88h-.85zm.27 13.04c0 .3-.26.54-.57.54h-.42c-.31 0-.57-.24-.57-.54v-3.59c0-.3.26-.55.57-.55h.42c.31 0 .57.25.57.55v3.59zm0 0"/><path fill="#a5d9e7" fill-rule="evenodd" d="M52.88 78.91c0 .31-.25.55-.56.55h-.92a.55.55 0 0 1-.56-.55V73.9c0-.3.25-.54.56-.54h.92c.31 0 .56.24.56.54v5.01zm.7-9.13c0 .12-.11.21-.23.21l-1.34-.08c-.12-.01-.22-.11-.21-.23l.07-1.11c.01-.12.11-.21.24-.2l1.33.08c.13 0 .22.11.21.23l-.07 1.1zm0 0"/><path fill="#2c586f" fill-rule="evenodd" d="M54.46 63.67s1.69-1.03 2.63 1.27c0 0 .78 2.21-1.31 2.57l-1.32-3.84zm0 0"/><path stroke-width=".174" stroke="#2c586f" fill="none" fill-rule="evenodd" d="M56.37 66.99v2.87"/><path fill="#2c586f" fill-rule="evenodd" d="M55.67 71.21l.34-1.35h.67l.29 1.35h-1.3zm0 0"/><path fill="#a5d9e7" fill-rule="evenodd" d="M56.98 71.24v11.65c0 .36-.19.65-.56.65h-.2c-.37 0-.56-.29-.56-.65V71.22m.74-6.08c.38 1.04.12 2.08-.57 2.32-.7.24-1.57-.42-1.95-1.46-.37-1.05-.12-2.09.58-2.33.69-.23 1.56.42 1.94 1.47"/><path fill="#f7f1f1" fill-rule="evenodd" d="M49.3 84.06h8.83v-7.79H49.3v7.79zm0 0"/><path stroke-width=".315" stroke="#c4c8ce" fill="none" fill-rule="evenodd" d="M49.3 84.06h8.83v-7.79H49.3v7.79zm0 0"/><path fill="#fbc386" fill-rule="evenodd" d="M25.84 36.58c0 .5-.42.91-.94.91h-.63c-.52 0-.94-.41-.94-.91v-4.69c0-.5.42-.91.94-.91h.63c.52 0 .94.41.94.91v4.69zm27.19 0c0 .5-.42.91-.94.91h-.63c-.52 0-.94-.41-.94-.91v-4.69c0-.5.42-.91.94-.91h.63c.52 0 .94.41.94.91v4.69zm0 0"/><path fill="#ffe1ad" fill-rule="evenodd" d="M48.39 128.7s-3.07 8.46 2.35 12.79c1.02.81 7.61-.94 4.89-1.81-2.72-.86-2.36-8.2-2.36-8.2s1.87 6.18 3.31 4.98c.9-.75.97-2.73-1.03-6.64-1.03-2-1.12-2.33-1.12-2.33s-2.02-1.44-3.01-1.29c-1.14.18-3.03 2.5-3.03 2.5"/><path fill="#fff" fill-rule="evenodd" d="M67.49 73.33s-.37.82-1.01 2.25c-.63 1.45-1.53 3.52-2.61 6-1.08 2.49-2.31 5.39-3.52 8.51-.61 1.56-1.21 3.18-1.76 4.8-.57 1.62-1.07 3.28-1.42 4.78l-.21 1.04-.2 1.36c-.12.89-.2 1.66-.3 2.52-.17 1.72-.31 3.44-.41 5.12-.2 3.35-.37 6.51-.46 9.22-.08 2.72-.15 4.98-.2 6.56-.03 1.58-.05 2.48-.05 2.48l-7.1.11s-.03-.93-.09-2.56c-.04-1.61-.13-3.92-.14-6.7-.01-2.77-.02-6.01.11-9.51.06-1.75.16-3.56.29-5.43.07-.93.16-1.97.26-2.88l.16-1.36c.09-.63.19-1.1.29-1.66.44-2.06.99-3.92 1.57-5.71.57-1.79 1.18-3.51 1.79-5.15 1.22-3.3 2.43-6.31 3.49-8.88 1.07-2.57 2.02-4.67 2.68-6.16.68-1.48 1.06-2.33 1.06-2.33l7.78 3.58zm0 0"/><path fill="#ffe1ad" fill-rule="evenodd" d="M106.11 127.07s3.71 8.21-1.37 12.93c-.96.88-7.66-.37-5.01-1.43 2.65-1.07 1.73-8.36 1.73-8.36s-1.4 6.3-2.93 5.21c-.95-.68-1.17-2.64.53-6.7.87-2.07.94-2.4.94-2.4s1.9-1.59 2.9-1.51c1.16.09 3.21 2.26 3.21 2.26"/><path fill="#fff" fill-rule="evenodd" d="M95.08 69.91l.94 2.29c.58 1.46 1.44 3.53 2.38 6.05.94 2.53 2.03 5.48 3.13 8.69.55 1.61 1.09 3.28 1.63 5.01.52 1.76 1.05 3.5 1.46 5.5l.08.36.05.26.03.16.11.66c.07.43.14.86.21 1.37.14.98.25 1.92.34 2.81.19 1.81.33 3.56.45 5.25.24 3.39.35 6.53.45 9.22.09 2.69.1 4.93.12 6.5.01 1.57.02 2.48.02 2.48l-7.1.19s-.05-.87-.15-2.4c-.11-1.54-.27-3.73-.46-6.37-.19-2.63-.46-5.7-.77-8.95-.17-1.62-.35-3.3-.57-4.97-.11-.85-.23-1.65-.36-2.42-.06-.37-.14-.81-.23-1.25l-.13-.66-.03-.16-.01-.04v-.02c-.02-.08.02.08.01.06l-.01-.07-.08-.28c-.32-1.48-.86-3.14-1.35-4.73-.54-1.6-1.08-3.19-1.64-4.72-1.12-3.07-2.23-5.94-3.2-8.39-1.94-4.9-3.24-8.17-3.24-8.17l7.92-3.26zm0 0"/><path stroke-width="4.371" stroke="#ffc890" fill="none" fill-rule="evenodd" d="M82.75 203.26v6.15"/><path fill="#ffc890" fill-rule="evenodd" d="M84.5 207.38s9.07 2.65 11.1 5.1c0 0-10.34.97-14.46-.77l-.97-2.79 4.33-1.54zm0 0"/><path fill="#465287" fill-rule="evenodd" d="M92.73 210.73s6.78.84 6.5 3.7c0 0-12.22.21-15.15-1.25l-.56.34h-3.56v-1.18s-1.19-2.79-.14-4.75c0 0 3.21 1.96 6.42 2.65 3.21.7 6.49.49 6.49.49"/><path stroke-width="4.371" stroke="#ffc890" fill="none" fill-rule="evenodd" d="M64.73 203.29l-.53 6.12"/><path fill="#ffc890" fill-rule="evenodd" d="M62.59 207.49s-9.02 2.82-11 5.3c0 0 10.35.79 14.43-1.03l.93-2.81-4.36-1.46zm0 0"/><path fill="#465287" fill-rule="evenodd" d="M54.42 210.99s-6.76.96-6.42 3.82c0 0 12.21-.01 15.12-1.53l.56.34 3.56-.07-.02-1.18s1.14-2.82.05-4.75c0 0-3.17 2.01-6.37 2.77-3.2.75-6.48.6-6.48.6"/><path fill="#e0c39d" fill-rule="evenodd" d="M82.42 83.42l2.13-11.87-1.81-3.91c-6.91.2-6.5.15-12.36.85l-4 11.95s7.99 7.65 8.69 7.79c.71.14 7.35-4.81 7.35-4.81"/><path fill="#e0c39d" fill-rule="evenodd" d="M80.63 62.9l-.2 4.88-3.61 4.28-4.48-3.37.92-8.03 7.37 2.24zm0 0"/><path fill="#ffe1ad" fill-rule="evenodd" d="M89.27 37.72s4.47 3.56 3.52 14.06c-.5 5.48-6.33 11.96-10.55 13.4-3.22 1.1-10.1-.44-13.84-5.05-3.73-4.62-7.69-7.91-6.37-14.72 1.32-6.81 3.74-12.74 11.21-13.4 7.46-.66 16.03 5.71 16.03 5.71"/><path fill="#cc7272" fill-rule="evenodd" d="M83.15 59.09s-.16.52-.74 1.07c-.28.29-.68.56-1.16.76-.48.21-1.06.28-1.63.25-.57-.08-1.11-.26-1.55-.53-.43-.27-.78-.59-1.03-.89-.27-.28-.4-.6-.52-.78-.11-.2-.16-.32-.16-.32s.12.05.32.16c.21.09.45.27.78.42.16.08.33.17.5.27.18.07.38.14.56.23.19.09.41.11.6.19.2.05.41.08.61.1.41.05.82.02 1.22-.06.39-.09.77-.2 1.09-.34.65-.27 1.11-.53 1.11-.53"/><path fill="#160300" fill-rule="evenodd" d="M84.74 50.53c0 1.04.55 1.89 1.22 1.89.67 0 1.21-.85 1.21-1.89s-.54-1.88-1.21-1.88c-.67 0-1.22.84-1.22 1.88"/><path fill="#ffe1ad" fill-rule="evenodd" d="M63.51 47.8s-3.63-2.29-4.49-.57c-.86 1.72.09 7.27 4.68 6.6"/><path fill="#160300" fill-rule="evenodd" d="M71.55 50.53c0 1.04.55 1.89 1.21 1.89.68 0 1.22-.85 1.22-1.89s-.54-1.88-1.22-1.88c-.66 0-1.21.84-1.21 1.88"/><path fill-rule="evenodd" d="M82.78 44.75s.06-.13.2-.29c.14-.15.34-.41.63-.6.29-.21.67-.39 1.09-.51.22-.05.44-.13.68-.13.24-.01.47-.03.72-.01.24.03.48.07.71.13.24.05.45.17.66.26.21.08.39.23.56.35.17.11.31.26.43.4.25.25.37.56.47.74.09.2.12.32.12.32l-.08.09s-.08-.06-.23-.16a3.58 3.58 0 0 0-.62-.39c-.26-.15-.59-.28-.95-.39-.37-.11-.76-.19-1.17-.21-.8-.09-1.62.03-2.21.18-.59.15-.96.32-.96.32l-.05-.1zm-6.19.54s-.13.05-.35.1c-.21.03-.52.14-.87.18-.35.06-.74.08-1.15.1-.2-.01-.41.03-.62.01-.21-.02-.42-.01-.63-.02-.21-.02-.42-.03-.62-.05-.2.01-.4-.04-.6-.06-.39-.04-.75-.08-1.08-.14-.32-.03-.63-.13-.84-.13-.21-.03-.35-.06-.35-.06l-.05-.11s.11-.04.29-.12c.19-.09.46-.16.79-.26.68-.16 1.6-.25 2.52-.21 1.84.11 3.59.66 3.59.66l-.03.11zm0 0"/><path fill="#454c60" fill-rule="evenodd" d="M83.95 102.43s12.77 15.45 11.14 30.95c-2.23 21.11-8.06 68.04-8.06 68.04h-6.45l-3.92-85.25 1.12-14.02 6.17.28zm0 0"/><path fill="#454c60" fill-rule="evenodd" d="M67.81 102.73s-7.96 10.92-6.98 32.12c.98 21.19-.21 66.24-.21 66.24l6.42.55 11.26-84.59.09-14.07-10.58-.25zm0 0"/><path fill="#3d697c" fill-rule="evenodd" d="M87.08 106.32l-21.92 1.24 1.78-5.82 18.67 2.49 1.47 2.09zm0 0"/><path fill="#b9ce31" fill-rule="evenodd" d="M78.5 78.17c-9.02 1.14-7.76-9.96-7.94-9.96-.88.01-3.46-.35-5.54.8-2.61 1.45-2.14 2.77-1.22 7.77.92 4.99 2.14 28.86 2.14 28.86l20.22-.78.92-19.2c2.63-1.19 2.63-6.32 1.57-7.5-1.05-1.18-2.1-2.37-3.55-7.1 0 0 .05-2.53-2.92-2.09 0 0 2.32 8.44-3.68 9.2"/><path fill="#58617f" fill-rule="evenodd" d="M78.61 202.87c0 .62.5 1.12 1.12 1.12h7.84c.61 0 1.11-.5 1.11-1.12v-2.24c0-.62-.5-1.12-1.11-1.12h-7.84c-.62 0-1.12.5-1.12 1.12v2.24zm-9.73.38c-.05.62-.59 1.07-1.21 1.02l-7.81-.67c-.61-.06-1.06-.6-1.01-1.21l.19-2.24c.05-.61.6-1.07 1.21-1.01l7.81.67c.61.06 1.07.6 1.01 1.21l-.19 2.23zm0 0"/><path fill="#cbeafe" fill-rule="evenodd" d="M75.21 109.01s.1 1.03.16 2.56c.08 1.53.11 3.57.12 5.62-.01 1.02-.03 2.04-.04 3-.06.9.38 1.7.95 2.14.59.43 1.22.59 1.65.67.44.06.7.1.7.1s-.26.01-.71 0c-.44-.03-1.12-.1-1.81-.53-.68-.44-1.26-1.34-1.25-2.38-.02-.96-.03-1.98-.04-3 .01-2.05.04-4.09.11-5.62.07-1.53.16-2.56.16-2.56"/><path fill="#cbeafe" fill-rule="evenodd" d="M90.97 120.2c-.75-.83-1.46-1.71-2.14-2.6-.69-.9-1.32-1.83-1.9-2.81-.58-.96-1.09-1.98-1.51-3.06-.09-.27-.22-.53-.28-.82-.08-.28-.17-.56-.22-.85l-.12-.88.02-.92.44.5c-2.86.01-5.72.07-8.58.05-2.87-.04-5.73-.03-8.59-.1l.39-.35c-.29 1.77-.77 3.48-1.55 5.1-.2.39-.43.78-.69 1.15-.11.19-.28.35-.42.52-.13.18-.3.34-.47.48-.17.15-.33.31-.53.41-.2.11-.37.27-.6.32-.21.06-.41.17-.64.19l-.66.05v-.05l.65-.08c.21-.04.4-.15.61-.22.21-.05.37-.22.55-.32.19-.11.34-.27.5-.42.16-.15.31-.31.43-.49.13-.17.28-.33.38-.53.24-.36.44-.74.62-1.14.72-1.59 1.15-3.3 1.39-5.02v-.04h17.26v.05l-.03.83.1.83c.05.27.13.54.19.81.06.28.17.54.26.8.37 1.05.85 2.07 1.4 3.04 1.09 1.95 2.38 3.79 3.78 5.54l-.04.03zm0 0"/><path fill="#fff" fill-rule="evenodd" d="M82.11 67.5l12.95 1.74c-.03 44.54.98 34.44 1.33 54.83.82 47.92-4.04 52.03-4.04 52.03H59.54s-1.8-35.06-2.18-48.63C57 114.42 59.82 69 59.82 69l12.56-1.21 5.74 8.2 3.99-8.49zm0 0"/><path fill="#80e5a4" fill-rule="evenodd" d="M81.93 176.1h-8.11l-1.31-95.9h10.87l-1.45 95.9zm0 0"/><path fill="#e6e9ee" fill-rule="evenodd" d="M83.11 67.65l-.32 45.06 7.82-25.94-4.53-4.06 3.89-3.3-1.23-11.06-5.63-.7zm-10.6.11l.44 44.83-8.09-25.97 4.52-4.06-3.88-3.3 1.16-10.84 5.85-.66zm0 0"/><path fill="#804a26" fill-rule="evenodd" d="M330.36 38.3s6.61-3.08 12.56.36c5.96 3.44 2.74 13.12 2.74 15.02 0 1.9 3.41 11.58 2.93 15.29-.47 3.71-5.67 13.3-11.34 14.02-5.67.73-18.11 4.12-18.11 4.12s-3.48-13.69.51-26.64c4-12.94 10.71-22.17 10.71-22.17"/><path fill="#e2a069" fill-rule="evenodd" d="M358.05 131.8s3.09 8.16-2.37 12.32c-1.02.79-7.66-.9-4.92-1.74 2.74-.83 2.38-7.9 2.38-7.9s-1.89 5.95-3.33 4.8c-.91-.73-.98-2.63 1.04-6.4 1.02-1.93 1.12-2.24 1.12-2.24s2.03-1.39 3.03-1.25c1.15.17 3.05 2.41 3.05 2.41"/><path fill="#b3b7c6" fill-rule="evenodd" d="M346.54 74.88s.39.82 1.06 2.24c.66 1.42 1.62 3.44 2.69 5.91 1.06 2.47 2.28 5.37 3.51 8.54.61 1.58 1.23 3.23 1.81 4.96.59 1.73 1.14 3.52 1.59 5.51l.31 1.63.16 1.32c.1.87.19 1.89.27 2.8.13 1.8.23 3.56.29 5.26.14 3.38.13 6.52.12 9.2-.01 2.68-.09 4.92-.14 6.48-.06 1.57-.09 2.47-.09 2.47l-6.99-.11s-.02-.87-.05-2.39c-.05-1.53-.12-3.72-.2-6.34-.09-2.62-.25-5.67-.46-8.91-.1-1.62-.24-3.27-.41-4.93-.1-.83-.18-1.55-.31-2.43l-.2-1.31-.21-.97c-.36-1.44-.86-3.03-1.43-4.59-.55-1.56-1.16-3.11-1.77-4.61-1.21-2.99-2.45-5.78-3.52-8.16-1.09-2.38-1.99-4.37-2.62-5.76-.65-1.37-1.01-2.16-1.01-2.16l7.6-3.65zm0 0"/><path fill="#f4bb82" fill-rule="evenodd" d="M299.94 130.23s-3.72 7.91 1.39 12.46c.96.85 7.71-.35 5.05-1.38-2.67-1.03-1.75-8.05-1.75-8.05s1.41 6.07 2.94 5.02c.97-.66 1.19-2.55-.53-6.46-.87-1.99-.94-2.31-.94-2.31s-1.92-1.54-2.92-1.46c-1.17.08-3.24 2.18-3.24 2.18"/><path fill="#b3b7c6" fill-rule="evenodd" d="M318.91 78.38l-3.25 7.83c-.97 2.36-2.09 5.11-3.2 8.06-.56 1.48-1.12 3-1.65 4.54-.5 1.52-1.03 3.12-1.36 4.53l-.07.27-.02.07-.01.04v.01c-.02.08.01-.09.01-.06l-.03.16-.13.63c-.08.41-.18.85-.23 1.21-.13.74-.25 1.5-.36 2.32-.23 1.61-.41 3.22-.58 4.79-.31 3.14-.59 6.1-.78 8.64-.18 2.54-.34 4.67-.45 6.15-.1 1.48-.15 2.32-.15 2.32l-6.99-.2s0-.88.01-2.4c.03-1.52.04-3.68.14-6.28.09-2.61.2-5.64.45-8.92.13-1.64.26-3.33.46-5.09.09-.85.21-1.78.35-2.73.06-.49.14-.89.21-1.31l.11-.64.03-.16.06-.26.08-.35c.42-1.93.96-3.61 1.48-5.31.54-1.66 1.09-3.28 1.65-4.82 1.1-3.1 2.19-5.93 3.14-8.36.95-2.43 1.81-4.41 2.39-5.82.6-1.4.94-2.2.94-2.2l7.75 3.34zm0 0"/><path stroke-width="4.305" stroke="#e2a069" fill="none" fill-rule="evenodd" d="M323.46 203.66v5.92"/><path fill="#e2a069" fill-rule="evenodd" d="M321.71 207.63s-9.14 2.56-11.18 4.91c0 0 10.4.95 14.55-.74l.98-2.69-4.35-1.48zm0 0"/><path fill="#465287" fill-rule="evenodd" d="M313.41 210.86s-6.81.81-6.53 3.57c0 0 12.3.2 15.25-1.21l.56.33h3.58v-1.14s1.2-2.69.14-4.58c0 0-3.23 1.89-6.46 2.56-3.23.67-6.54.47-6.54.47"/><path stroke-width="4.305" stroke="#e2a069" fill="none" fill-rule="evenodd" d="M341.61 203.69l.53 5.9"/><path fill="#e2a069" fill-rule="evenodd" d="M343.75 207.74s9.09 2.72 11.08 5.11c0 0-10.42.76-14.53-1l-.93-2.7 4.38-1.41zm0 0"/><path fill="#465287" fill-rule="evenodd" d="M351.98 211.11s6.8.93 6.47 3.68c0 0-12.3-.01-15.23-1.47l-.56.32-3.59-.06.02-1.14s-1.14-2.71-.05-4.58c0 0 3.2 1.94 6.42 2.67 3.22.73 6.52.58 6.52.58"/><path fill="#c68a5d" fill-rule="evenodd" d="M323.79 88.16l-2.13-11.45 1.82-3.77c6.95.2 6.53.15 12.44.82l4.02 11.52s-8.04 7.37-8.75 7.51c-.71.14-7.4-4.63-7.4-4.63"/><path fill="#c68a5d" fill-rule="evenodd" d="M325.6 68.38l.19 4.7 3.64 4.13 4.51-3.25-.93-7.74-7.41 2.16zm0 0"/><path fill="#454c60" fill-rule="evenodd" d="M322.26 106.48s-12.86 14.89-11.21 29.83c2.23 20.34 8.1 65.58 8.1 65.58h6.49l3.96-82.17-1.13-13.51-6.21.27zm0 0"/><path fill="#454c60" fill-rule="evenodd" d="M338.5 106.77s8.02 10.52 7.03 30.95c-.99 20.43.21 63.85.21 63.85l-6.47.53-11.33-81.53-.09-13.56 10.65-.24zm0 0"/><path fill="#e2a069" fill-rule="evenodd" d="M316.35 44.23s-5.6 8.45-3.44 13.19c2.15 4.74 6.2 11.22 10.33 12.57 3.16 1.04 9.9-.41 13.56-4.74s7.53-7.42 6.24-13.81c-1.29-6.39-3.66-11.95-10.98-12.57-7.31-.62-15.71 5.36-15.71 5.36"/><path fill="#382f31" fill-rule="evenodd" d="M320.57 56.22c0 .97-.53 1.77-1.19 1.77-.66 0-1.19-.8-1.19-1.77 0-.98.53-1.77 1.19-1.77.66 0 1.19.79 1.19 1.77m12.93 0c0 .97-.54 1.77-1.19 1.77-.66 0-1.19-.8-1.19-1.77 0-.98.53-1.77 1.19-1.77.65 0 1.19.79 1.19 1.77"/><path fill="#cc7272" fill-rule="evenodd" d="M323.11 64.19s.46.22 1.1.47c.65.25 1.49.49 2.3.42.4 0 .79-.12 1.17-.23.37-.15.73-.3 1.03-.48.32-.14.55-.33.74-.43.19-.1.31-.16.31-.16s-.05.12-.15.31c-.11.19-.23.5-.5.77-.24.31-.59.6-1.02.87-.23.1-.45.24-.72.31-.26.05-.53.14-.8.14-1.13.07-2.14-.47-2.69-.99-.58-.51-.77-1-.77-1"/><path fill="#b34814" fill-rule="evenodd" d="M322.44 50.89s-.12.03-.31.07c-.19.01-.47.1-.76.13-.3.04-.62.09-.96.11-.33.05-.67.05-1 .1-.34 0-.66.05-.98.07-.34.02-.65.05-.92.07-.29.02-.58.01-.76.05-.2.02-.33.01-.33.01l-.07-.09s.09-.06.23-.16c.14-.11.35-.26.62-.4.26-.15.59-.29.95-.41.37-.12.77-.2 1.17-.24.82-.06 1.63.08 2.22.25.58.16.95.34.95.34l-.05.1zm0 0"/><path fill="#6d3f20" fill-rule="evenodd" d="M328.53 51.2s.08-.11.25-.26c.17-.13.41-.36.73-.53.31-.18.7-.36 1.12-.48.43-.14.9-.19 1.38-.24.48 0 .96.02 1.41.13.45.09.87.26 1.2.45.66.4.95.86.95.86l-.04.1s-.11-.03-.29-.1c-.17-.08-.44-.14-.76-.21-.65-.13-1.54-.19-2.42-.13-1.77.05-3.5.51-3.5.51l-.03-.1zm0 0"/><path fill="#3d697c" fill-rule="evenodd" d="M319.11 110.23l22.06 1.2-1.8-5.62-18.78 2.41-1.48 2.01zm0 0"/><path fill="#b9ce31" fill-rule="evenodd" d="M327.74 83.1c9.08 1.1 7.81-9.6 7.99-9.6.89 0 3.49-.34 5.58.77 2.63 1.4 2.16 2.67 1.23 7.48-.93 4.82-2.16 27.82-2.16 27.82l-20.34-.75-.93-18.51c-2.65-1.14-2.65-6.08-1.59-7.22 1.06-1.14 2.12-2.29 3.57-6.85 0 0-.04-2.43 2.94-2.01 0 0-2.33 8.13 3.71 8.87"/><path fill="#58617f" fill-rule="evenodd" d="M327.63 203.29c0 .59-.51 1.07-1.13 1.07h-7.89c-.62 0-1.12-.48-1.12-1.07v-2.16c0-.6.5-1.08 1.12-1.08h7.89c.62 0 1.13.48 1.13 1.08v2.16zm9.79.37c.06.59.6 1.03 1.22.98l7.86-.66c.62-.05 1.08-.57 1.02-1.16l-.19-2.15c-.06-.6-.6-1.03-1.22-.98l-7.86.65c-.61.05-1.07.57-1.02 1.16l.19 2.16zm0 0"/><path fill="#cbeafe" fill-rule="evenodd" d="M331.05 112.82s.09 1 .16 2.49c.07 1.48.1 3.47.11 5.45-.01 1-.03 1.99-.04 2.92a2.747 2.747 0 0 1-2.31 2.62c-.3.08-.57.08-.79.11-.44 0-.69-.01-.69-.01s.25-.03.68-.09c.21-.05.47-.08.75-.19.28-.08.58-.23.87-.43.59-.38 1.06-1.15 1.03-2.01-.01-.93-.03-1.92-.04-2.92.01-1.98.04-3.97.11-5.45.07-1.49.16-2.49.16-2.49"/><path fill="#cbeafe" fill-rule="evenodd" d="M315.15 123.57c1.34-1.72 2.51-3.56 3.56-5.44.53-.94.99-1.92 1.33-2.92.08-.25.19-.49.24-.75.05-.25.12-.51.16-.76l.09-.75-.03-.74-.02-.49h.45c2.88-.02 5.77-.08 8.65-.05 2.88.03 5.76.02 8.64.09l.35.01.03.33c.2 1.65.6 3.32 1.28 4.83.16.39.36.75.57 1.11.1.18.24.34.36.51.11.18.26.32.41.47.14.15.29.29.46.4.17.12.33.26.53.32.2.07.38.19.59.22l.62.1v.06l-.64-.08c-.22-.02-.41-.13-.61-.19-.21-.06-.38-.2-.57-.31-.19-.1-.35-.24-.5-.4-.16-.14-.32-.28-.45-.46-.13-.17-.28-.32-.39-.51-.24-.35-.46-.72-.64-1.11-.19-.38-.36-.78-.51-1.18-.15-.4-.27-.81-.4-1.22-.23-.82-.41-1.65-.53-2.5l.04.03-17.29.01.05-.05.02.82-.1.82c-.06.26-.14.53-.2.79-.06.27-.18.52-.26.78-.39 1.02-.88 2-1.44 2.94-1.11 1.88-2.4 3.64-3.81 5.31l-.04-.04zm0 0"/><path fill="#d3d5dd" fill-rule="evenodd" d="M324.1 72.82l-13.03 1.67c.03 42.93-.98 33.2-1.34 52.85-.83 46.18 4.07 50.15 4.07 50.15h33.03s1.81-33.8 2.19-46.87c.37-12.58-2.47-56.37-2.47-56.37L333.9 73.1l-5.98 8.23-3.82-8.51zm0 0"/><path fill="#2c586f" fill-rule="evenodd" d="M340.04 87.35h-.62v.11l.65.17-.03-.28zm.52.78l-.98 3.23 1.29.19.44-3.42h-.75zm.23 11.49c0 .27-.23.48-.5.48h-.38c-.28 0-.5-.21-.5-.48v-3.16c0-.27.22-.48.5-.48h.38c.27 0 .5.21.5.48v3.16zm0 0"/><path fill="#a5d9e7" fill-rule="evenodd" d="M341.01 96.22c0 .26-.23.48-.5.48h-.82c-.28 0-.5-.22-.5-.48V91.8c0-.26.22-.48.5-.48h.82c.27 0 .5.22.5.48v4.42zm.62-8.05c0 .1-.1.18-.21.18l-1.19-.07a.208.208 0 0 1-.19-.21l.06-.97c.01-.11.11-.19.22-.18l1.19.07c.11.01.19.1.19.2l-.07.98zm0 0"/><path fill="#2c586f" fill-rule="evenodd" d="M342.41 82.78s1.52-.91 2.35 1.12c0 0 .7 1.94-1.17 2.26l-1.18-3.38zm0 0"/><path stroke-width=".154" stroke="#2c586f" fill="none" fill-rule="evenodd" d="M344.12 85.7v2.54"/><path fill="#2c586f" fill-rule="evenodd" d="M343.49 89.43l.3-1.19h.61l.25 1.19h-1.16zm0 0"/><path fill="#a5d9e7" fill-rule="evenodd" d="M344.67 89.45v10.27c0 .32-.17.58-.51.58h-.17c-.34 0-.51-.26-.51-.58V89.43m.67-5.36c.33.92.11 1.84-.51 2.05-.62.21-1.4-.37-1.74-1.29-.34-.92-.11-1.84.51-2.05.62-.21 1.4.37 1.74 1.29"/><path fill="#f7f1f1" fill-rule="evenodd" d="M337.81 100.76h7.87v-6.88h-7.87v6.88zm0 0"/><path stroke-width=".279" stroke="#c4c8ce" fill="none" fill-rule="evenodd" d="M337.81 100.76h7.87v-6.88h-7.87v6.88zm0 0"/><path fill="#62699d" fill-rule="evenodd" d="M324.29 177.49h8.16l1.32-92.44h-10.94l1.46 92.44zm0 0"/><path fill="#e6e9ee" fill-rule="evenodd" d="M323.1 72.96l.32 43.42-7.87-24.99 4.56-3.91-3.91-3.18 1.23-10.67 5.67-.67zm10.67.11l-.44 43.2 8.14-25.03-4.55-3.91 3.91-3.18-1.17-10.45-5.89-.63zm0 0"/><path fill="#804a26" fill-rule="evenodd" d="M315.99 72.57s-5.17-6.66-1.39-12.75c3.78-6.1 5.77-7.43 7.56-7.62 1.79-.19 9.94-.95 11.33-8.76 1.39-7.8-3.18-9.52-6.56-8.94-3.38.57-9.94 3.61-12.92 12.37-2.99 8.76-5.57 23.8 1.98 25.7"/><path fill="#804a26" fill-rule="evenodd" d="M332.02 39.32s8.63 13.01 9.66 22.63c0 0 4.84-5.46 4.37-12.48-.17-2.51-5.15-15.45-14.03-10.15"/><path fill-rule="evenodd" d="M63.67 55.62s-.16-.23-.39-.66c-.22-.43-.59-1.07-.91-1.9-.35-.84-.75-1.87-1.04-3.1-.16-.61-.32-1.27-.47-1.97-.11-.71-.22-1.46-.3-2.25-.13-1.6-.12-3.37.17-5.32.18-.97.39-1.99.74-3.05.35-1.04.86-2.12 1.47-3.21 1.29-2.14 3.38-4.31 6.07-5.58 2.62-1.28 5.67-1.64 8-1.48.36.01 1.18.09 1.87.18.73.08 1.31.23 1.95.37 1.27.34 2.52.79 3.71 1.4 2.38 1.23 4.42 3.03 5.8 5.01.72.96 1.27 1.98 1.72 2.98.45.99.81 1.97 1.04 2.93.52 1.91.69 3.7.7 5.31.03 1.6-.18 3.05-.38 4.3-.18 1.24-.53 2.31-.79 3.16-.27.86-.59 1.52-.78 1.96-.21.44-.34.67-.34.67l-.64-.05s.07-.93.03-2.56c-.06-1.62-.26-3.95-.86-6.66-.31-1.35-.73-2.79-1.37-4.23-.63-1.44-1.45-2.9-2.57-4.17a11.84 11.84 0 0 0-4.12-3.08c-1.61-.75-3.4-1.09-5.21-1.16-1.82-.07-3.61.12-5.21.82-1.6.69-2.91 1.87-3.9 3.22-1.94 2.79-2.69 6.04-3.08 8.76-.36 2.76-.43 5.1-.4 6.73.03 1.63.12 2.55.12 2.55l-.63.08zm0 0"/><path fill-rule="evenodd" d="M71.55 22.46c0-1.77.72.17 1.88-1 1.17-1.16 2.77-2.47 4.55-2.47 1.72 0 3.28 1.27 4.44 2.37 1.22 1.17 1.99-.72 1.99 1.1 0 3.55-2.88 6.43-6.43 6.43s-6.43-2.88-6.43-6.43"/><path fill="#80e5a4" fill-rule="evenodd" d="M74.04 27.58s.74 2.67 7.87-.04"/><path fill="#3a3338" fill-rule="evenodd" d="M50.61 31.89l-.47 6.01s-2.32 3.61-4.29 4.3c-1.97.69-3.11.94-3.83 1.58-.72.64 2.01-4.36.9-4.84-.84-.37-8.77-.39-9.66-.08-1.15.39 1.25 5.13.53 4.5-.72-.64-1.57-.78-3.54-1.47s-4.29-4.3-4.29-4.3l-.54-6.51-.84 7.18s2.32 10.51 13.18 10.48c10.86-.03 13.38-10.2 13.38-10.2l-.53-6.65zm0 0"/><path fill="#ff6969" fill-rule="evenodd" d="M211.77 44.41s-2.83 6.98-8.18.13l8.18-.13zm0 0"/><path fill="#fff" fill-rule="evenodd" d="M211.49 44.22s-.13.98-.46 1.08c-.33.09-5.75.09-5.75.09s-.75.17-1.05-.75c-.29-.91 7.26-.42 7.26-.42"/><path fill="#fc8b8b" fill-rule="evenodd" d="M42.66 40.37s-3.04 7.26-8.79.2c-.02-.03 0-.07.03-.07l8.76-.13"/><path fill="#fff" fill-rule="evenodd" d="M42.68 40.37s-.45 1.16-.8 1.26c-.35.11-6.22.11-6.22.11s-.59-.04-1.36-.69c-.1-.09-.46-.55-.46-.55 1.9-.08 8.84-.13 8.84-.13"/><path fill-rule="evenodd" d="M428.63 79.56c0 .36-.3.66-.66.66a.66.66 0 1 1 .66-.66"/><path fill="#c5c5c5" fill-rule="evenodd" d="M441.04 83.41c0 1.04-.85 1.9-1.9 1.9a1.906 1.906 0 0 1 0-3.81c1.05 0 1.9.86 1.9 1.91"/><path fill="#fff" fill-rule="evenodd" d="M440.19 83.41a1.05 1.05 0 1 1-2.1 0c0-.59.47-1.05 1.05-1.05.58 0 1.05.46 1.05 1.05"/><path fill-rule="evenodd" d="M440.58 82.16l-.73-.52c3.19-4.45 3.99-9.23 2.39-14.2-1.21-3.74-3.4-6.19-3.42-6.22l.66-.6c.1.1 2.33 2.6 3.6 6.51 1.18 3.62 1.7 9.17-2.5 15.03m-19.4-8.44c-2.05-2.55-2.58-5.63-1.55-8.9.78-2.45 2.14-4.12 2.2-4.19l.7.58-.35-.29.35.29c-.02.01-1.32 1.62-2.04 3.91-.95 3-.37 5.79 1.5 8.12l-.81.48zm0 0"/><path fill-rule="evenodd" d="M422.7 77.7c-1.14 0-2.07-.95-2.07-2.13 0-1.17.93-2.12 2.07-2.12 1.15 0 2.08.95 2.08 2.12 0 .13-.02.25-.04.37-.03.19-.08.36-.16.53h.34c.1-.28.16-.58.16-.9 0-1.34-1.06-2.44-2.38-2.44-1.31 0-2.38 1.1-2.38 2.44 0 1.35 1.07 2.45 2.38 2.45.02 0 .05-.01.07-.01h.05v-.31h-.12"/><path fill="#c5c5c5" fill-rule="evenodd" d="M423.99 81.78l-.26-.24c2.37-2.51.92-4.97.85-5.07h.34c-.06 0 1.63 2.6-.93 5.31"/><path fill="#c5c5c5" fill-rule="evenodd" d="M426.64 79.91c-1.32 0-2.28-.45-2.88-.87-.8-.55-.98-1-.99-1.03l.05-.31c.06.09 1.49 2.24 4.64 1.79l.05.35c-.3.05-.6.07-.87.07"/><path fill-rule="evenodd" d="M424.02 82.08a.66.66 0 1 1-1.32 0c0-.37.29-.66.66-.66.36 0 .66.29.66.66m-218.94-3.52c0 .43-.35.78-.78.78a.79.79 0 0 1-.79-.78c0-.43.36-.79.79-.79.43 0 .78.36.78.79"/><path fill="#c5c5c5" fill-rule="evenodd" d="M219.8 83.12a2.256 2.256 0 1 1-4.511.009 2.256 2.256 0 0 1 4.511-.009"/><path fill="#fff" fill-rule="evenodd" d="M218.79 83.12c0 .69-.55 1.25-1.24 1.25s-1.25-.56-1.25-1.25.56-1.24 1.25-1.24 1.24.55 1.24 1.24"/><path fill="#2c586f" fill-rule="evenodd" d="M219.26 81.65l-.87-.63c3.79-5.27 4.74-10.94 2.83-16.84-1.43-4.43-4.89-7.9-4.92-7.93l1.66-.16c.11.12 2.76 3.08 4.26 7.72 1.4 4.3 2.02 10.89-2.96 17.84m-23.02-10.02c-2.43-3.03-3.07-6.68-1.83-10.56.92-2.9 2.53-4.88 2.6-4.96l1.04.13c-.02.02-1.78 2.47-2.64 5.18-1.12 3.57-.43 6.88 1.79 9.65l-.96.56zm0 0"/><path fill="#2c586f" fill-rule="evenodd" d="M198.05 76.35c-1.36 0-2.46-1.12-2.46-2.52 0-1.39 1.1-2.52 2.46-2.52 1.36 0 2.46 1.13 2.46 2.52 0 .15-.02.3-.04.44-.04.22-.1.43-.19.62h.39c.13-.33.2-.68.2-1.06 0-1.6-1.26-2.9-2.82-2.9-1.56 0-2.83 1.3-2.83 2.9 0 1.6 1.27 2.9 2.83 2.9h.07c.03-.01.05-.01.07-.01v-.37h-.14"/><path fill="#c5c5c5" fill-rule="evenodd" d="M199.58 81.2l-.31-.3c2.8-2.97 1.08-5.89 1.01-6.01h.39c-.07 0 1.94 3.09-1.09 6.31"/><path fill="#c5c5c5" fill-rule="evenodd" d="M202.71 78.97c-1.55 0-2.69-.53-3.42-1.02-.94-.65-1.15-1.2-1.17-1.22l.07-.38c.07.11 1.76 2.66 5.5 2.12l.06.43c-.36.05-.71.07-1.04.07"/><path fill-rule="evenodd" d="M199.6 81.55a.781.781 0 0 1-1.56 0 .781.781 0 0 1 1.56 0m-80.73-15.22a.781.781 0 0 1-1.56 0 .781.781 0 0 1 1.56 0"/><path fill="#c5c5c5" fill-rule="evenodd" d="M133.59 70.89a2.256 2.256 0 1 1-4.511.009 2.256 2.256 0 0 1 4.511-.009"/><path fill="#fff" fill-rule="evenodd" d="M132.59 70.89a1.25 1.25 0 0 1-2.5 0c0-.68.56-1.24 1.25-1.24s1.25.56 1.25 1.24"/><path fill="#e64c3c" fill-rule="evenodd" d="M133.42 70l-.87-.62c3.79-5.27 4.74-10.94 2.83-16.84-1.43-4.44-4.89-7.91-4.92-7.94l1.99.24c.11.12 2.43 2.69 3.94 7.33 1.4 4.3 2.02 10.88-2.97 17.83m-23.39-10.6c-2.43-3.02-3.06-6.68-1.83-10.56.92-2.9 2.25-5 2.32-5.08l1.86-.22-.54.47c-.02.02-1.78 2.48-2.63 5.19-1.13 3.56-.44 6.87 1.78 9.64l-.96.56zm0 0"/><path fill="#e64c3c" fill-rule="evenodd" d="M111.84 64.13c-1.36 0-2.46-1.13-2.46-2.53 0-1.39 1.1-2.52 2.46-2.52 1.36 0 2.46 1.13 2.46 2.52 0 .15-.02.3-.04.44-.04.22-.1.43-.19.62h.39c.13-.32.2-.68.2-1.06 0-1.6-1.26-2.89-2.82-2.89-1.56 0-2.83 1.29-2.83 2.89s1.27 2.9 2.83 2.9h.08c.02 0 .04 0 .06-.01v-.37c-.04 0-.09.01-.14.01"/><path fill="#c5c5c5" fill-rule="evenodd" d="M113.37 68.97l-.31-.29c2.8-2.98 1.08-5.89 1.01-6.02h.39c-.07 0 1.94 3.1-1.09 6.31"/><path fill="#c5c5c5" fill-rule="evenodd" d="M116.5 66.75c-1.55 0-2.69-.53-3.41-1.03-.95-.65-1.16-1.19-1.17-1.22l.06-.38c.07.11 1.76 2.66 5.5 2.13l.06.42c-.36.05-.71.08-1.04.08"/><path fill-rule="evenodd" d="M113.4 69.32c0 .43-.35.78-.78.78-.44 0-.79-.35-.79-.78 0-.43.35-.78.79-.78.43 0 .78.35.78.78"/><path stroke-width=".5" stroke="#000" fill="none" fill-rule="evenodd" d="M34.36 33h-4.69c-.8 0-1.45-.65-1.45-1.45v-1.14c0-.8.65-1.45 1.45-1.45h4.69c.79 0 1.44.65 1.44 1.45v1.14c0 .8-.65 1.45-1.44 1.45zm12.76.1h-4.69c-.8 0-1.45-.65-1.45-1.45v-1.14c0-.8.65-1.45 1.45-1.45h4.69c.8 0 1.45.65 1.45 1.45v1.14c0 .8-.65 1.45-1.45 1.45zM35.8 31.55l5.18.1m7.59 0l2.57-1.89s.89-1.23.95 1.22m-23.87.57l-3.64-1.79s-1.2-.29-.83 1.37"/><path stroke-width=".75" stroke="#35150a" fill="none" fill-rule="evenodd" d="M111.68 16.02h5.86m5.16 0h5.87"/></svg>